<svg xmlns="http://www.w3.org/2000/svg" xmlns:xlink="http://www.w3.org/1999/xlink" width="2400" height="1319.18"><rect width="2400" height="1319.18" rx="5" ry="5" class="a"/><svg y="0%" x="0%"><circle cx="20" cy="20" r="6" fill="#ff5f58"/><circle cx="40" cy="20" r="6" fill="#ffbd2e"/><circle cx="60" cy="20" r="6" fill="#18c132"/></svg><svg height="1259.18" viewBox="0 0 236 125.918" width="2360" x="15" xmlns="http://www.w3.org/2000/svg" xmlns:xlink="http://www.w3.org/1999/xlink" y="50"><style>@keyframes k{0%{transform:translateX(0)}.3%{transform:translateX(-472px)}9.1%{transform:translateX(-944px)}26.4%{transform:translateX(-1180px)}43.8%{transform:translateX(-1416px)}44.3%{transform:translateX(-1652px)}44.8%{transform:translateX(-1888px)}45.3%{transform:translateX(-2124px)}45.9%{transform:translateX(-2360px)}46.5%{transform:translateX(-2596px)}47%{transform:translateX(-2832px)}47.5%{transform:translateX(-3068px)}48%{transform:translateX(-3304px)}48.5%{transform:translateX(-3540px)}49.1%{transform:translateX(-3776px)}49.7%{transform:translateX(-4012px)}50.3%{transform:translateX(-4248px)}50.9%{transform:translateX(-4484px)}51.6%{transform:translateX(-4720px)}52.1%{transform:translateX(-4956px)}52.7%{transform:translateX(-5192px)}53.3%{transform:translateX(-5428px)}53.9%{transform:translateX(-5664px)}54.4%{transform:translateX(-5900px)}55.2%{transform:translateX(-6136px)}55.9%{transform:translateX(-6372px)}56.7%{transform:translateX(-6608px)}57.3%{transform:translateX(-6844px)}57.8%{transform:translateX(-7080px)}58.4%{transform:translateX(-7316px)}59%{transform:translateX(-7552px)}59.6%{transform:translateX(-7788px)}60.2%{transform:translateX(-8024px)}60.7%{transform:translateX(-8260px)}61.2%{transform:translateX(-8496px)}61.8%{transform:translateX(-8732px)}66.3%{transform:translateX(-8968px)}66.8%{transform:translateX(-9204px)}67.3%{transform:translateX(-9440px)}68%{transform:translateX(-9676px)}68.7%{transform:translateX(-9912px)}69.3%{transform:translateX(-10148px)}70%{transform:translateX(-10384px)}70.6%{transform:translateX(-10620px)}71.1%{transform:translateX(-10856px)}71.7%{transform:translateX(-11092px)}72.2%{transform:translateX(-11328px)}72.8%{transform:translateX(-11564px)}73.3%{transform:translateX(-11800px)}73.9%{transform:translateX(-12036px)}75.4%{transform:translateX(-12272px)}75.9%{transform:translateX(-12508px)}76.7%{transform:translateX(-12744px)}77.3%{transform:translateX(-12980px)}78%{transform:translateX(-13216px)}78.5%{transform:translateX(-13452px)}79.1%{transform:translateX(-13688px)}79.7%{transform:translateX(-13924px)}80.2%{transform:translateX(-14160px)}80.8%{transform:translateX(-14396px)}81.4%{transform:translateX(-14632px)}82.2%{transform:translateX(-14868px)}82.7%{transform:translateX(-15104px)}83.4%{transform:translateX(-15340px)}84.1%{transform:translateX(-15576px)}84.7%{transform:translateX(-15812px)}85.2%{transform:translateX(-16048px)}85.7%{transform:translateX(-16284px)}86.2%{transform:translateX(-16520px)}86.7%{transform:translateX(-16756px)}87.5%{transform:translateX(-16992px)}92.3%{transform:translateX(-17228px)}99.8%{transform:translateX(-17700px)}}.a{fill:#282d35}.f,.g,.h,.i{fill:#b9c0cb;white-space:pre}.g,.h,.i{fill:#71bef2}.h,.i{fill:#a8cc8c}.i{fill:#66c2cd}</style><g font-family="Monaco,Consolas,Menlo,'Bitstream Vera Sans Mono','Powerline Symbols',monospace" font-size="1.67"><defs><symbol id="1"><text y="1.67" class="f">Starting</text><text x="9.018" y="1.67" class="f">ARX</text><text x="13.026" y="1.67" class="f">Demo...</text></symbol><symbol id="2"><text y="1.67" class="g">#</text><text x="2.004" y="1.67" class="g">Episode</text><text x="10.02" y="1.67" class="g">7:</text><text x="13.026" y="1.67" class="g">Password</text><text x="22.044" y="1.67" class="g">Protection</text></symbol><symbol id="3"><text y="1.67" class="g">#</text><text x="2.004" y="1.67" class="g">Secure</text><text x="9.018" y="1.67" class="g">your</text><text x="14.028" y="1.67" class="g">archives</text><text x="23.046" y="1.67" class="g">with</text><text x="28.056" y="1.67" class="g">passwords</text><text x="38.076" y="1.67" class="g">(zip/7z).</text></symbol><symbol id="4"><text y="1.67" class="h">➜</text><text x="2.004" y="1.67" class="i">arx-demo</text><text x="11.022" y="1.67" class="f">$</text><text x="13.026" y="1.67" class="f">#</text></symbol><symbol id="5"><text y="1.67" class="h">➜</text><text x="2.004" y="1.67" class="i">arx-demo</text><text x="11.022" y="1.67" class="f">$</text><text x="13.026" y="1.67" class="f">#</text><text x="15.03" y="1.67" class="f">Use</text></symbol><symbol id="6"><text y="1.67" class="h">➜</text><text x="2.004" y="1.67" class="i">arx-demo</text><text x="11.022" y="1.67" class="f">$</text><text x="13.026" y="1.67" class="f">#</text><text x="15.03" y="1.67" class="f">Use</text><text x="19.038" y="1.67" class="f">-p</text></symbol><symbol id="7"><text y="1.67" class="h">➜</text><text x="2.004" y="1.67" class="i">arx-demo</text><text x="11.022" y="1.67" class="f">$</text><text x="13.026" y="1.67" class="f">#</text><text x="15.03" y="1.67" class="f">Use</text><text x="19.038" y="1.67" class="f">-p</text><text x="22.044" y="1.67" class="f">to</text></symbol><symbol id="8"><text y="1.67" class="h">➜</text><text x="2.004" y="1.67" class="i">arx-demo</text><text x="11.022" y="1.67" class="f">$</text><text x="13.026" y="1.67" class="f">#</text><text x="15.03" y="1.67" class="f">Use</text><text x="19.038" y="1.67" class="f">-p</text><text x="22.044" y="1.67" class="f">to</text><text x="25.05" y="1.67" class="f">prompt</text></symbol><symbol id="9"><text y="1.67" class="h">➜</text><text x="2.004" y="1.67" class="i">arx-demo</text><text x="11.022" y="1.67" class="f">$</text><text x="13.026" y="1.67" class="f">#</text><text x="15.03" y="1.67" class="f">Use</text><text x="19.038" y="1.67" class="f">-p</text><text x="22.044" y="1.67" class="f">to</text><text x="25.05" y="1.67" class="f">prompt</text><text x="32.064" y="1.67" class="f">for</text></symbol><symbol id="10"><text y="1.67" class="h">➜</text><text x="2.004" y="1.67" class="i">arx-demo</text><text x="11.022" y="1.67" class="f">$</text><text x="13.026" y="1.67" class="f">#</text><text x="15.03" y="1.67" class="f">Use</text><text x="19.038" y="1.67" class="f">-p</text><text x="22.044" y="1.67" class="f">to</text><text x="25.05" y="1.67" class="f">prompt</text><text x="32.064" y="1.67" class="f">for</text><text x="36.072" y="1.67" class="f">password</text></symbol><symbol id="11"><text y="1.67" class="h">➜</text><text x="2.004" y="1.67" class="i">arx-demo</text><text x="11.022" y="1.67" class="f">$</text><text x="13.026" y="1.67" class="f">arx</text></symbol><symbol id="12"><text y="1.67" class="h">➜</text><text x="2.004" y="1.67" class="i">arx-demo</text><text x="11.022" y="1.67" class="f">$</text><text x="13.026" y="1.67" class="f">arx</text><text x="17.034" y="1.67" class="f">-c</text></symbol><symbol id="13"><text y="1.67" class="h">➜</text><text x="2.004" y="1.67" class="i">arx-demo</text><text x="11.022" y="1.67" class="f">$</text><text x="13.026" y="1.67" class="f">arx</text><text x="17.034" y="1.67" class="f">-c</text><text x="20.04" y="1.67" class="f">zip</text></symbol><symbol id="14"><text y="1.67" class="h">➜</text><text x="2.004" y="1.67" class="i">arx-demo</text><text x="11.022" y="1.67" class="f">$</text><text x="13.026" y="1.67" class="f">arx</text><text x="17.034" y="1.67" class="f">-c</text><text x="20.04" y="1.67" class="f">zip</text><text x="24.048" y="1.67" class="f">-n</text></symbol><symbol id="15"><text y="1.67" class="h">➜</text><text x="2.004" y="1.67" class="i">arx-demo</text><text x="11.022" y="1.67" class="f">$</text><text x="13.026" y="1.67" class="f">arx</text><text x="17.034" y="1.67" class="f">-c</text><text x="20.04" y="1.67" class="f">zip</text><text x="24.048" y="1.67" class="f">-n</text><text x="27.054" y="1.67" class="f">secret</text></symbol><symbol id="16"><text y="1.67" class="h">➜</text><text x="2.004" y="1.67" class="i">arx-demo</text><text x="11.022" y="1.67" class="f">$</text><text x="13.026" y="1.67" class="f">arx</text><text x="17.034" y="1.67" class="f">-c</text><text x="20.04" y="1.67" class="f">zip</text><text x="24.048" y="1.67" class="f">-n</text><text x="27.054" y="1.67" class="f">secret</text><text x="34.068" y="1.67" class="f">-p</text></symbol><symbol id="17"><text y="1.67" class="h">➜</text><text x="2.004" y="1.67" class="i">arx-demo</text><text x="11.022" y="1.67" class="f">$</text><text x="13.026" y="1.67" class="f">arx</text><text x="17.034" y="1.67" class="f">-c</text><text x="20.04" y="1.67" class="f">zip</text><text x="24.048" y="1.67" class="f">-n</text><text x="27.054" y="1.67" class="f">secret</text><text x="34.068" y="1.67" class="f">-p</text><text x="37.074" y="1.67" class="f">secret.txt</text></symbol><symbol id="18"><text y="1.67" class="f">Password:</text></symbol><symbol id="19"><text y="1.67" class="g">ℹ</text><text x="2.004" y="1.67" class="f">Creating</text><text x="11.022" y="1.67" class="f">secret.zip</text><text x="22.044" y="1.67" class="f">176B</text><text x="27.054" y="1.67" class="f">from</text><text x="32.064" y="1.67" class="f">base:</text><text x="38.076" y="1.67" class="f">.</text></symbol><symbol id="20"><text y="1.67" class="h">✓</text><text x="2.004" y="1.67" class="f">Archive</text><text x="10.02" y="1.67" class="f">created:</text><text x="19.038" y="1.67" class="f">secret.zip</text></symbol><symbol id="a"><path fill="transparent" d="M0 0h236v58H0z"/></symbol></defs><path class="a" d="M0 0h236v125.918H0z"/><g style="animation-duration:11.579438s;animation-iteration-count:infinite;animation-name:k;animation-timing-function:steps(1,end)"><svg width="17936"><svg><use xlink:href="#a"/></svg><svg x="236"><use xlink:href="#a"/><use xlink:href="#1"/></svg><svg x="472"><use xlink:href="#a"/><use xlink:href="#1"/></svg><svg x="708"><use xlink:href="#a"/></svg><svg x="944"><use xlink:href="#a"/><use xlink:href="#2" y="2.171"/></svg><svg x="1180"><use xlink:href="#a"/><use xlink:href="#2" y="2.171"/><use xlink:href="#3" y="6.513"/></svg><svg x="1416"><use xlink:href="#a"/><use xlink:href="#2" y="2.171"/><use xlink:href="#3" y="6.513"/><use xlink:href="#4" y="8.684"/></svg><svg x="1652"><use xlink:href="#a"/><use xlink:href="#2" y="2.171"/><use xlink:href="#3" y="6.513"/><use xlink:href="#4" y="8.684"/></svg><svg x="1888"><use xlink:href="#a"/><use xlink:href="#2" y="2.171"/><use xlink:href="#3" y="6.513"/><text y="10.354" class="h">➜</text><text x="2.004" y="10.354" class="i">arx-demo</text><text x="11.022" y="10.354" class="f">$</text><text x="13.026" y="10.354" class="f">#</text><text x="15.03" y="10.354" class="f">U</text></svg><svg x="2124"><use xlink:href="#a"/><use xlink:href="#2" y="2.171"/><use xlink:href="#3" y="6.513"/><text y="10.354" class="h">➜</text><text x="2.004" y="10.354" class="i">arx-demo</text><text x="11.022" y="10.354" class="f">$</text><text x="13.026" y="10.354" class="f">#</text><text x="15.03" y="10.354" class="f">Us</text></svg><svg x="2360"><use xlink:href="#a"/><use xlink:href="#2" y="2.171"/><use xlink:href="#3" y="6.513"/><use xlink:href="#5" y="8.684"/></svg><svg x="2596"><use xlink:href="#a"/><use xlink:href="#2" y="2.171"/><use xlink:href="#3" y="6.513"/><use xlink:href="#5" y="8.684"/></svg><svg x="2832"><use xlink:href="#a"/><use xlink:href="#2" y="2.171"/><use xlink:href="#3" y="6.513"/><text y="10.354" class="h">➜</text><text x="2.004" y="10.354" class="i">arx-demo</text><text x="11.022" y="10.354" class="f">$</text><text x="13.026" y="10.354" class="f">#</text><text x="15.03" y="10.354" class="f">Use</text><text x="19.038" y="10.354" class="f">-</text></svg><svg x="3068"><use xlink:href="#a"/><use xlink:href="#2" y="2.171"/><use xlink:href="#3" y="6.513"/><use xlink:href="#6" y="8.684"/></svg><svg x="3304"><use xlink:href="#a"/><use xlink:href="#2" y="2.171"/><use xlink:href="#3" y="6.513"/><use xlink:href="#6" y="8.684"/></svg><svg x="3540"><use xlink:href="#a"/><use xlink:href="#2" y="2.171"/><use xlink:href="#3" y="6.513"/><text y="10.354" class="h">➜</text><text x="2.004" y="10.354" class="i">arx-demo</text><text x="11.022" y="10.354" class="f">$</text><text x="13.026" y="10.354" class="f">#</text><text x="15.03" y="10.354" class="f">Use</text><text x="19.038" y="10.354" class="f">-p</text><text x="22.044" y="10.354" class="f">t</text></svg><svg x="3776"><use xlink:href="#a"/><use xlink:href="#2" y="2.171"/><use xlink:href="#3" y="6.513"/><use xlink:href="#7" y="8.684"/></svg><svg x="4012"><use xlink:href="#a"/><use xlink:href="#2" y="2.171"/><use xlink:href="#3" y="6.513"/><use xlink:href="#7" y="8.684"/></svg><svg x="4248"><use xlink:href="#a"/><use xlink:href="#2" y="2.171"/><use xlink:href="#3" y="6.513"/><text y="10.354" class="h">➜</text><text x="2.004" y="10.354" class="i">arx-demo</text><text x="11.022" y="10.354" class="f">$</text><text x="13.026" y="10.354" class="f">#</text><text x="15.03" y="10.354" class="f">Use</text><text x="19.038" y="10.354" class="f">-p</text><text x="22.044" y="10.354" class="f">to</text><text x="25.05" y="10.354" class="f">p</text></svg><svg x="4484"><use xlink:href="#a"/><use xlink:href="#2" y="2.171"/><use xlink:href="#3" y="6.513"/><text y="10.354" class="h">➜</text><text x="2.004" y="10.354" class="i">arx-demo</text><text x="11.022" y="10.354" class="f">$</text><text x="13.026" y="10.354" class="f">#</text><text x="15.03" y="10.354" class="f">Use</text><text x="19.038" y="10.354" class="f">-p</text><text x="22.044" y="10.354" class="f">to</text><text x="25.05" y="10.354" class="f">pr</text></svg><svg x="4720"><use xlink:href="#a"/><use xlink:href="#2" y="2.171"/><use xlink:href="#3" y="6.513"/><text y="10.354" class="h">➜</text><text x="2.004" y="10.354" class="i">arx-demo</text><text x="11.022" y="10.354" class="f">$</text><text x="13.026" y="10.354" class="f">#</text><text x="15.03" y="10.354" class="f">Use</text><text x="19.038" y="10.354" class="f">-p</text><text x="22.044" y="10.354" class="f">to</text><text x="25.05" y="10.354" class="f">pro</text></svg><svg x="4956"><use xlink:href="#a"/><use xlink:href="#2" y="2.171"/><use xlink:href="#3" y="6.513"/><text y="10.354" class="h">➜</text><text x="2.004" y="10.354" class="i">arx-demo</text><text x="11.022" y="10.354" class="f">$</text><text x="13.026" y="10.354" class="f">#</text><text x="15.03" y="10.354" class="f">Use</text><text x="19.038" y="10.354" class="f">-p</text><text x="22.044" y="10.354" class="f">to</text><text x="25.05" y="10.354" class="f">prom</text></svg><svg x="5192"><use xlink:href="#a"/><use xlink:href="#2" y="2.171"/><use xlink:href="#3" y="6.513"/><text y="10.354" class="h">➜</text><text x="2.004" y="10.354" class="i">arx-demo</text><text x="11.022" y="10.354" class="f">$</text><text x="13.026" y="10.354" class="f">#</text><text x="15.03" y="10.354" class="f">Use</text><text x="19.038" y="10.354" class="f">-p</text><text x="22.044" y="10.354" class="f">to</text><text x="25.05" y="10.354" class="f">promp</text></svg><svg x="5428"><use xlink:href="#a"/><use xlink:href="#2" y="2.171"/><use xlink:href="#3" y="6.513"/><use xlink:href="#8" y="8.684"/></svg><svg x="5664"><use xlink:href="#a"/><use xlink:href="#2" y="2.171"/><use xlink:href="#3" y="6.513"/><use xlink:href="#8" y="8.684"/></svg><svg x="5900"><use xlink:href="#a"/><use xlink:href="#2" y="2.171"/><use xlink:href="#3" y="6.513"/><text y="10.354" class="h">➜</text><text x="2.004" y="10.354" class="i">arx-demo</text><text x="11.022" y="10.354" class="f">$</text><text x="13.026" y="10.354" class="f">#</text><text x="15.03" y="10.354" class="f">Use</text><text x="19.038" y="10.354" class="f">-p</text><text x="22.044" y="10.354" class="f">to</text><text x="25.05" y="10.354" class="f">prompt</text><text x="32.064" y="10.354" class="f">f</text></svg><svg x="6136"><use xlink:href="#a"/><use xlink:href="#2" y="2.171"/><use xlink:href="#3" y="6.513"/><text y="10.354" class="h">➜</text><text x="2.004" y="10.354" class="i">arx-demo</text><text x="11.022" y="10.354" class="f">$</text><text x="13.026" y="10.354" class="f">#</text><text x="15.03" y="10.354" class="f">Use</text><text x="19.038" y="10.354" class="f">-p</text><text x="22.044" y="10.354" class="f">to</text><text x="25.05" y="10.354" class="f">prompt</text><text x="32.064" y="10.354" class="f">fo</text></svg><svg x="6372"><use xlink:href="#a"/><use xlink:href="#2" y="2.171"/><use xlink:href="#3" y="6.513"/><use xlink:href="#9" y="8.684"/></svg><svg x="6608"><use xlink:href="#a"/><use xlink:href="#2" y="2.171"/><use xlink:href="#3" y="6.513"/><use xlink:href="#9" y="8.684"/></svg><svg x="6844"><use xlink:href="#a"/><use xlink:href="#2" y="2.171"/><use xlink:href="#3" y="6.513"/><text y="10.354" class="h">➜</text><text x="2.004" y="10.354" class="i">arx-demo</text><text x="11.022" y="10.354" class="f">$</text><text x="13.026" y="10.354" class="f">#</text><text x="15.03" y="10.354" class="f">Use</text><text x="19.038" y="10.354" class="f">-p</text><text x="22.044" y="10.354" class="f">to</text><text x="25.05" y="10.354" class="f">prompt</text><text x="32.064" y="10.354" class="f">for</text><text x="36.072" y="10.354" class="f">p</text></svg><svg x="7080"><use xlink:href="#a"/><use xlink:href="#2" y="2.171"/><use xlink:href="#3" y="6.513"/><text y="10.354" class="h">➜</text><text x="2.004" y="10.354" class="i">arx-demo</text><text x="11.022" y="10.354" class="f">$</text><text x="13.026" y="10.354" class="f">#</text><text x="15.03" y="10.354" class="f">Use</text><text x="19.038" y="10.354" class="f">-p</text><text x="22.044" y="10.354" class="f">to</text><text x="25.05" y="10.354" class="f">prompt</text><text x="32.064" y="10.354" class="f">for</text><text x="36.072" y="10.354" class="f">pa</text></svg><svg x="7316"><use xlink:href="#a"/><use xlink:href="#2" y="2.171"/><use xlink:href="#3" y="6.513"/><text y="10.354" class="h">➜</text><text x="2.004" y="10.354" class="i">arx-demo</text><text x="11.022" y="10.354" class="f">$</text><text x="13.026" y="10.354" class="f">#</text><text x="15.03" y="10.354" class="f">Use</text><text x="19.038" y="10.354" class="f">-p</text><text x="22.044" y="10.354" class="f">to</text><text x="25.05" y="10.354" class="f">prompt</text><text x="32.064" y="10.354" class="f">for</text><text x="36.072" y="10.354" class="f">pas</text></svg><svg x="7552"><use xlink:href="#a"/><use xlink:href="#2" y="2.171"/><use xlink:href="#3" y="6.513"/><text y="10.354" class="h">➜</text><text x="2.004" y="10.354" class="i">arx-demo</text><text x="11.022" y="10.354" class="f">$</text><text x="13.026" y="10.354" class="f">#</text><text x="15.03" y="10.354" class="f">Use</text><text x="19.038" y="10.354" class="f">-p</text><text x="22.044" y="10.354" class="f">to</text><text x="25.05" y="10.354" class="f">prompt</text><text x="32.064" y="10.354" class="f">for</text><text x="36.072" y="10.354" class="f">pass</text></svg><svg x="7788"><use xlink:href="#a"/><use xlink:href="#2" y="2.171"/><use xlink:href="#3" y="6.513"/><text y="10.354" class="h">➜</text><text x="2.004" y="10.354" class="i">arx-demo</text><text x="11.022" y="10.354" class="f">$</text><text x="13.026" y="10.354" class="f">#</text><text x="15.03" y="10.354" class="f">Use</text><text x="19.038" y="10.354" class="f">-p</text><text x="22.044" y="10.354" class="f">to</text><text x="25.05" y="10.354" class="f">prompt</text><text x="32.064" y="10.354" class="f">for</text><text x="36.072" y="10.354" class="f">passw</text></svg><svg x="8024"><use xlink:href="#a"/><use xlink:href="#2" y="2.171"/><use xlink:href="#3" y="6.513"/><text y="10.354" class="h">➜</text><text x="2.004" y="10.354" class="i">arx-demo</text><text x="11.022" y="10.354" class="f">$</text><text x="13.026" y="10.354" class="f">#</text><text x="15.03" y="10.354" class="f">Use</text><text x="19.038" y="10.354" class="f">-p</text><text x="22.044" y="10.354" class="f">to</text><text x="25.05" y="10.354" class="f">prompt</text><text x="32.064" y="10.354" class="f">for</text><text x="36.072" y="10.354" class="f">passwo</text></svg><svg x="8260"><use xlink:href="#a"/><use xlink:href="#2" y="2.171"/><use xlink:href="#3" y="6.513"/><text y="10.354" class="h">➜</text><text x="2.004" y="10.354" class="i">arx-demo</text><text x="11.022" y="10.354" class="f">$</text><text x="13.026" y="10.354" class="f">#</text><text x="15.03" y="10.354" class="f">Use</text><text x="19.038" y="10.354" class="f">-p</text><text x="22.044" y="10.354" class="f">to</text><text x="25.05" y="10.354" class="f">prompt</text><text x="32.064" y="10.354" class="f">for</text><text x="36.072" y="10.354" class="f">passwor</text></svg><svg x="8496"><use xlink:href="#a"/><use xlink:href="#2" y="2.171"/><use xlink:href="#3" y="6.513"/><use xlink:href="#10" y="8.684"/></svg><svg x="8732"><use xlink:href="#a"/><use xlink:href="#2" y="2.171"/><use xlink:href="#3" y="6.513"/><use xlink:href="#10" y="8.684"/></svg><svg x="8968"><use xlink:href="#a"/><use xlink:href="#2" y="2.171"/><use xlink:href="#3" y="6.513"/><use xlink:href="#10" y="8.684"/><text y="12.525" class="h">➜</text><text x="2.004" y="12.525" class="i">arx-demo</text><text x="11.022" y="12.525" class="f">$</text><text x="13.026" y="12.525" class="f">a</text></svg><svg x="9204"><use xlink:href="#a"/><use xlink:href="#2" y="2.171"/><use xlink:href="#3" y="6.513"/><use xlink:href="#10" y="8.684"/><text y="12.525" class="h">➜</text><text x="2.004" y="12.525" class="i">arx-demo</text><text x="11.022" y="12.525" class="f">$</text><text x="13.026" y="12.525" class="f">ar</text></svg><svg x="9440"><use xlink:href="#a"/><use xlink:href="#2" y="2.171"/><use xlink:href="#3" y="6.513"/><use xlink:href="#10" y="8.684"/><use xlink:href="#11" y="10.855"/></svg><svg x="9676"><use xlink:href="#a"/><use xlink:href="#2" y="2.171"/><use xlink:href="#3" y="6.513"/><use xlink:href="#10" y="8.684"/><use xlink:href="#11" y="10.855"/></svg><svg x="9912"><use xlink:href="#a"/><use xlink:href="#2" y="2.171"/><use xlink:href="#3" y="6.513"/><use xlink:href="#10" y="8.684"/><text y="12.525" class="h">➜</text><text x="2.004" y="12.525" class="i">arx-demo</text><text x="11.022" y="12.525" class="f">$</text><text x="13.026" y="12.525" class="f">arx</text><text x="17.034" y="12.525" class="f">-</text></svg><svg x="10148"><use xlink:href="#a"/><use xlink:href="#2" y="2.171"/><use xlink:href="#3" y="6.513"/><use xlink:href="#10" y="8.684"/><use xlink:href="#12" y="10.855"/></svg><svg x="10384"><use xlink:href="#a"/><use xlink:href="#2" y="2.171"/><use xlink:href="#3" y="6.513"/><use xlink:href="#10" y="8.684"/><use xlink:href="#12" y="10.855"/></svg><svg x="10620"><use xlink:href="#a"/><use xlink:href="#2" y="2.171"/><use xlink:href="#3" y="6.513"/><use xlink:href="#10" y="8.684"/><text y="12.525" class="h">➜</text><text x="2.004" y="12.525" class="i">arx-demo</text><text x="11.022" y="12.525" class="f">$</text><text x="13.026" y="12.525" class="f">arx</text><text x="17.034" y="12.525" class="f">-c</text><text x="20.04" y="12.525" class="f">z</text></svg><svg x="10856"><use xlink:href="#a"/><use xlink:href="#2" y="2.171"/><use xlink:href="#3" y="6.513"/><use xlink:href="#10" y="8.684"/><text y="12.525" class="h">➜</text><text x="2.004" y="12.525" class="i">arx-demo</text><text x="11.022" y="12.525" class="f">$</text><text x="13.026" y="12.525" class="f">arx</text><text x="17.034" y="12.525" class="f">-c</text><text x="20.04" y="12.525" class="f">zi</text></svg><svg x="11092"><use xlink:href="#a"/><use xlink:href="#2" y="2.171"/><use xlink:href="#3" y="6.513"/><use xlink:href="#10" y="8.684"/><use xlink:href="#13" y="10.855"/></svg><svg x="11328"><use xlink:href="#a"/><use xlink:href="#2" y="2.171"/><use xlink:href="#3" y="6.513"/><use xlink:href="#10" y="8.684"/><use xlink:href="#13" y="10.855"/></svg><svg x="11564"><use xlink:href="#a"/><use xlink:href="#2" y="2.171"/><use xlink:href="#3" y="6.513"/><use xlink:href="#10" y="8.684"/><text y="12.525" class="h">➜</text><text x="2.004" y="12.525" class="i">arx-demo</text><text x="11.022" y="12.525" class="f">$</text><text x="13.026" y="12.525" class="f">arx</text><text x="17.034" y="12.525" class="f">-c</text><text x="20.04" y="12.525" class="f">zip</text><text x="24.048" y="12.525" class="f">-</text></svg><svg x="11800"><use xlink:href="#a"/><use xlink:href="#2" y="2.171"/><use xlink:href="#3" y="6.513"/><use xlink:href="#10" y="8.684"/><use xlink:href="#14" y="10.855"/></svg><svg x="12036"><use xlink:href="#a"/><use xlink:href="#2" y="2.171"/><use xlink:href="#3" y="6.513"/><use xlink:href="#10" y="8.684"/><use xlink:href="#14" y="10.855"/></svg><svg x="12272"><use xlink:href="#a"/><use xlink:href="#2" y="2.171"/><use xlink:href="#3" y="6.513"/><use xlink:href="#10" y="8.684"/><text y="12.525" class="h">➜</text><text x="2.004" y="12.525" class="i">arx-demo</text><text x="11.022" y="12.525" class="f">$</text><text x="13.026" y="12.525" class="f">arx</text><text x="17.034" y="12.525" class="f">-c</text><text x="20.04" y="12.525" class="f">zip</text><text x="24.048" y="12.525" class="f">-n</text><text x="27.054" y="12.525" class="f">s</text></svg><svg x="12508"><use xlink:href="#a"/><use xlink:href="#2" y="2.171"/><use xlink:href="#3" y="6.513"/><use xlink:href="#10" y="8.684"/><text y="12.525" class="h">➜</text><text x="2.004" y="12.525" class="i">arx-demo</text><text x="11.022" y="12.525" class="f">$</text><text x="13.026" y="12.525" class="f">arx</text><text x="17.034" y="12.525" class="f">-c</text><text x="20.04" y="12.525" class="f">zip</text><text x="24.048" y="12.525" class="f">-n</text><text x="27.054" y="12.525" class="f">se</text></svg><svg x="12744"><use xlink:href="#a"/><use xlink:href="#2" y="2.171"/><use xlink:href="#3" y="6.513"/><use xlink:href="#10" y="8.684"/><text y="12.525" class="h">➜</text><text x="2.004" y="12.525" class="i">arx-demo</text><text x="11.022" y="12.525" class="f">$</text><text x="13.026" y="12.525" class="f">arx</text><text x="17.034" y="12.525" class="f">-c</text><text x="20.04" y="12.525" class="f">zip</text><text x="24.048" y="12.525" class="f">-n</text><text x="27.054" y="12.525" class="f">sec</text></svg><svg x="12980"><use xlink:href="#a"/><use xlink:href="#2" y="2.171"/><use xlink:href="#3" y="6.513"/><use xlink:href="#10" y="8.684"/><text y="12.525" class="h">➜</text><text x="2.004" y="12.525" class="i">arx-demo</text><text x="11.022" y="12.525" class="f">$</text><text x="13.026" y="12.525" class="f">arx</text><text x="17.034" y="12.525" class="f">-c</text><text x="20.04" y="12.525" class="f">zip</text><text x="24.048" y="12.525" class="f">-n</text><text x="27.054" y="12.525" class="f">secr</text></svg><svg x="13216"><use xlink:href="#a"/><use xlink:href="#2" y="2.171"/><use xlink:href="#3" y="6.513"/><use xlink:href="#10" y="8.684"/><text y="12.525" class="h">➜</text><text x="2.004" y="12.525" class="i">arx-demo</text><text x="11.022" y="12.525" class="f">$</text><text x="13.026" y="12.525" class="f">arx</text><text x="17.034" y="12.525" class="f">-c</text><text x="20.04" y="12.525" class="f">zip</text><text x="24.048" y="12.525" class="f">-n</text><text x="27.054" y="12.525" class="f">secre</text></svg><svg x="13452"><use xlink:href="#a"/><use xlink:href="#2" y="2.171"/><use xlink:href="#3" y="6.513"/><use xlink:href="#10" y="8.684"/><use xlink:href="#15" y="10.855"/></svg><svg x="13688"><use xlink:href="#a"/><use xlink:href="#2" y="2.171"/><use xlink:href="#3" y="6.513"/><use xlink:href="#10" y="8.684"/><use xlink:href="#15" y="10.855"/></svg><svg x="13924"><use xlink:href="#a"/><use xlink:href="#2" y="2.171"/><use xlink:href="#3" y="6.513"/><use xlink:href="#10" y="8.684"/><text y="12.525" class="h">➜</text><text x="2.004" y="12.525" class="i">arx-demo</text><text x="11.022" y="12.525" class="f">$</text><text x="13.026" y="12.525" class="f">arx</text><text x="17.034" y="12.525" class="f">-c</text><text x="20.04" y="12.525" class="f">zip</text><text x="24.048" y="12.525" class="f">-n</text><text x="27.054" y="12.525" class="f">secret</text><text x="34.068" y="12.525" class="f">-</text></svg><svg x="14160"><use xlink:href="#a"/><use xlink:href="#2" y="2.171"/><use xlink:href="#3" y="6.513"/><use xlink:href="#10" y="8.684"/><use xlink:href="#16" y="10.855"/></svg><svg x="14396"><use xlink:href="#a"/><use xlink:href="#2" y="2.171"/><use xlink:href="#3" y="6.513"/><use xlink:href="#10" y="8.684"/><use xlink:href="#16" y="10.855"/></svg><svg x="14632"><use xlink:href="#a"/><use xlink:href="#2" y="2.171"/><use xlink:href="#3" y="6.513"/><use xlink:href="#10" y="8.684"/><text y="12.525" class="h">➜</text><text x="2.004" y="12.525" class="i">arx-demo</text><text x="11.022" y="12.525" class="f">$</text><text x="13.026" y="12.525" class="f">arx</text><text x="17.034" y="12.525" class="f">-c</text><text x="20.04" y="12.525" class="f">zip</text><text x="24.048" y="12.525" class="f">-n</text><text x="27.054" y="12.525" class="f">secret</text><text x="34.068" y="12.525" class="f">-p</text><text x="37.074" y="12.525" class="f">s</text></svg><svg x="14868"><use xlink:href="#a"/><use xlink:href="#2" y="2.171"/><use xlink:href="#3" y="6.513"/><use xlink:href="#10" y="8.684"/><text y="12.525" class="h">➜</text><text x="2.004" y="12.525" class="i">arx-demo</text><text x="11.022" y="12.525" class="f">$</text><text x="13.026" y="12.525" class="f">arx</text><text x="17.034" y="12.525" class="f">-c</text><text x="20.04" y="12.525" class="f">zip</text><text x="24.048" y="12.525" class="f">-n</text><text x="27.054" y="12.525" class="f">secret</text><text x="34.068" y="12.525" class="f">-p</text><text x="37.074" y="12.525" class="f">se</text></svg><svg x="15104"><use xlink:href="#a"/><use xlink:href="#2" y="2.171"/><use xlink:href="#3" y="6.513"/><use xlink:href="#10" y="8.684"/><text y="12.525" class="h">➜</text><text x="2.004" y="12.525" class="i">arx-demo</text><text x="11.022" y="12.525" class="f">$</text><text x="13.026" y="12.525" class="f">arx</text><text x="17.034" y="12.525" class="f">-c</text><text x="20.04" y="12.525" class="f">zip</text><text x="24.048" y="12.525" class="f">-n</text><text x="27.054" y="12.525" class="f">secret</text><text x="34.068" y="12.525" class="f">-p</text><text x="37.074" y="12.525" class="f">sec</text></svg><svg x="15340"><use xlink:href="#a"/><use xlink:href="#2" y="2.171"/><use xlink:href="#3" y="6.513"/><use xlink:href="#10" y="8.684"/><text y="12.525" class="h">➜</text><text x="2.004" y="12.525" class="i">arx-demo</text><text x="11.022" y="12.525" class="f">$</text><text x="13.026" y="12.525" class="f">arx</text><text x="17.034" y="12.525" class="f">-c</text><text x="20.04" y="12.525" class="f">zip</text><text x="24.048" y="12.525" class="f">-n</text><text x="27.054" y="12.525" class="f">secret</text><text x="34.068" y="12.525" class="f">-p</text><text x="37.074" y="12.525" class="f">secr</text></svg><svg x="15576"><use xlink:href="#a"/><use xlink:href="#2" y="2.171"/><use xlink:href="#3" y="6.513"/><use xlink:href="#10" y="8.684"/><text y="12.525" class="h">➜</text><text x="2.004" y="12.525" class="i">arx-demo</text><text x="11.022" y="12.525" class="f">$</text><text x="13.026" y="12.525" class="f">arx</text><text x="17.034" y="12.525" class="f">-c</text><text x="20.04" y="12.525" class="f">zip</text><text x="24.048" y="12.525" class="f">-n</text><text x="27.054" y="12.525" class="f">secret</text><text x="34.068" y="12.525" class="f">-p</text><text x="37.074" y="12.525" class="f">secre</text></svg><svg x="15812"><use xlink:href="#a"/><use xlink:href="#2" y="2.171"/><use xlink:href="#3" y="6.513"/><use xlink:href="#10" y="8.684"/><text y="12.525" class="h">➜</text><text x="2.004" y="12.525" class="i">arx-demo</text><text x="11.022" y="12.525" class="f">$</text><text x="13.026" y="12.525" class="f">arx</text><text x="17.034" y="12.525" class="f">-c</text><text x="20.04" y="12.525" class="f">zip</text><text x="24.048" y="12.525" class="f">-n</text><text x="27.054" y="12.525" class="f">secret</text><text x="34.068" y="12.525" class="f">-p</text><text x="37.074" y="12.525" class="f">secret</text></svg><svg x="16048"><use xlink:href="#a"/><use xlink:href="#2" y="2.171"/><use xlink:href="#3" y="6.513"/><use xlink:href="#10" y="8.684"/><text y="12.525" class="h">➜</text><text x="2.004" y="12.525" class="i">arx-demo</text><text x="11.022" y="12.525" class="f">$</text><text x="13.026" y="12.525" class="f">arx</text><text x="17.034" y="12.525" class="f">-c</text><text x="20.04" y="12.525" class="f">zip</text><text x="24.048" y="12.525" class="f">-n</text><text x="27.054" y="12.525" class="f">secret</text><text x="34.068" y="12.525" class="f">-p</text><text x="37.074" y="12.525" class="f">secret.</text></svg><svg x="16284"><use xlink:href="#a"/><use xlink:href="#2" y="2.171"/><use xlink:href="#3" y="6.513"/><use xlink:href="#10" y="8.684"/><text y="12.525" class="h">➜</text><text x="2.004" y="12.525" class="i">arx-demo</text><text x="11.022" y="12.525" class="f">$</text><text x="13.026" y="12.525" class="f">arx</text><text x="17.034" y="12.525" class="f">-c</text><text x="20.04" y="12.525" class="f">zip</text><text x="24.048" y="12.525" class="f">-n</text><text x="27.054" y="12.525" class="f">secret</text><text x="34.068" y="12.525" class="f">-p</text><text x="37.074" y="12.525" class="f">secret.t</text></svg><svg x="16520"><use xlink:href="#a"/><use xlink:href="#2" y="2.171"/><use xlink:href="#3" y="6.513"/><use xlink:href="#10" y="8.684"/><text y="12.525" class="h">➜</text><text x="2.004" y="12.525" class="i">arx-demo</text><text x="11.022" y="12.525" class="f">$</text><text x="13.026" y="12.525" class="f">arx</text><text x="17.034" y="12.525" class="f">-c</text><text x="20.04" y="12.525" class="f">zip</text><text x="24.048" y="12.525" class="f">-n</text><text x="27.054" y="12.525" class="f">secret</text><text x="34.068" y="12.525" class="f">-p</text><text x="37.074" y="12.525" class="f">secret.tx</text></svg><svg x="16756"><use xlink:href="#a"/><use xlink:href="#2" y="2.171"/><use xlink:href="#3" y="6.513"/><use xlink:href="#10" y="8.684"/><use xlink:href="#17" y="10.855"/></svg><svg x="16992"><use xlink:href="#a"/><use xlink:href="#2" y="2.171"/><use xlink:href="#3" y="6.513"/><use xlink:href="#10" y="8.684"/><use xlink:href="#17" y="10.855"/></svg><svg x="17228"><use xlink:href="#a"/><use xlink:href="#2" y="2.171"/><use xlink:href="#3" y="6.513"/><use xlink:href="#10" y="8.684"/><use xlink:href="#17" y="10.855"/><use xlink:href="#18" y="13.026"/></svg><svg x="17464"><use xlink:href="#a"/><use xlink:href="#2" y="2.171"/><use xlink:href="#3" y="6.513"/><use xlink:href="#10" y="8.684"/><use xlink:href="#17" y="10.855"/><use xlink:href="#18" y="13.026"/><use xlink:href="#19" y="15.197"/><use xlink:href="#20" y="17.368"/></svg><svg x="17700"><use xlink:href="#a"/><use xlink:href="#2" y="2.171"/><use xlink:href="#3" y="6.513"/><use xlink:href="#10" y="8.684"/><use xlink:href="#17" y="10.855"/><use xlink:href="#18" y="13.026"/><use xlink:href="#19" y="15.197"/><use xlink:href="#20" y="17.368"/><text x="2.004" y="21.209" class="f">Compressed:</text><text x="14.028" y="21.209" class="f">16B</text><text x="18.036" y="21.209" class="f">→</text><text x="20.04" y="21.209" class="f">176B</text><text x="25.05" y="21.209" class="f">(1100%</text><text x="32.064" y="21.209" class="f">of</text><text x="35.07" y="21.209" class="f">original</text><text x="44.088" y="21.209" class="f">size)</text><text y="25.551" class="f">Demo</text><text x="5.01" y="25.551" class="f">finished.</text></svg></svg></g></g></svg></svg>