<svg xmlns="http://www.w3.org/2000/svg" xmlns:xlink="http://www.w3.org/1999/xlink" width="2400" height="1319.18"><rect width="2400" height="1319.18" rx="5" ry="5" class="a"/><svg y="0%" x="0%"><circle cx="20" cy="20" r="6" fill="#ff5f58"/><circle cx="40" cy="20" r="6" fill="#ffbd2e"/><circle cx="60" cy="20" r="6" fill="#18c132"/></svg><svg height="1259.18" viewBox="0 0 236 125.918" width="2360" x="15" xmlns="http://www.w3.org/2000/svg" xmlns:xlink="http://www.w3.org/1999/xlink" y="50"><style>@keyframes k{0%{transform:translateX(0)}.2%{transform:translateX(-472px)}6.4%{transform:translateX(-708px)}19.5%{transform:translateX(-944px)}32.5%{transform:translateX(-1180px)}32.9%{transform:translateX(-1416px)}33.4%{transform:translateX(-1652px)}33.7%{transform:translateX(-1888px)}34.2%{transform:translateX(-2124px)}34.8%{transform:translateX(-2360px)}35.2%{transform:translateX(-2596px)}35.5%{transform:translateX(-2832px)}36%{transform:translateX(-3068px)}36.4%{transform:translateX(-3304px)}36.7%{transform:translateX(-3540px)}37.1%{transform:translateX(-3776px)}37.4%{transform:translateX(-4012px)}37.8%{transform:translateX(-4248px)}38.2%{transform:translateX(-4484px)}38.7%{transform:translateX(-4720px)}39.2%{transform:translateX(-4956px)}39.9%{transform:translateX(-5192px)}40.4%{transform:translateX(-5428px)}40.7%{transform:translateX(-5664px)}41.1%{transform:translateX(-5900px)}41.5%{transform:translateX(-6136px)}41.8%{transform:translateX(-6372px)}42.2%{transform:translateX(-6608px)}42.5%{transform:translateX(-6844px)}42.9%{transform:translateX(-7080px)}43.3%{transform:translateX(-7316px)}43.7%{transform:translateX(-7552px)}44.2%{transform:translateX(-7788px)}44.6%{transform:translateX(-8024px)}44.9%{transform:translateX(-8260px)}45.3%{transform:translateX(-8496px)}45.6%{transform:translateX(-8732px)}46%{transform:translateX(-8968px)}46.4%{transform:translateX(-9204px)}46.7%{transform:translateX(-9440px)}47.2%{transform:translateX(-9676px)}47.6%{transform:translateX(-9912px)}48%{transform:translateX(-10148px)}48.4%{transform:translateX(-10384px)}48.8%{transform:translateX(-10620px)}52%{transform:translateX(-10856px)}52.4%{transform:translateX(-11092px)}52.8%{transform:translateX(-11328px)}53.2%{transform:translateX(-11564px)}53.6%{transform:translateX(-11800px)}54%{transform:translateX(-12036px)}54.3%{transform:translateX(-12272px)}54.8%{transform:translateX(-12508px)}58.5%{transform:translateX(-12744px)}64.6%{transform:translateX(-12980px)}65%{transform:translateX(-13216px)}65.6%{transform:translateX(-13452px)}66.3%{transform:translateX(-13688px)}66.8%{transform:translateX(-13924px)}67.2%{transform:translateX(-14160px)}67.5%{transform:translateX(-14396px)}68%{transform:translateX(-14632px)}68.5%{transform:translateX(-14868px)}69.2%{transform:translateX(-15104px)}69.6%{transform:translateX(-15340px)}69.9%{transform:translateX(-15576px)}70.3%{transform:translateX(-15812px)}70.7%{transform:translateX(-16048px)}71.1%{transform:translateX(-16284px)}71.4%{transform:translateX(-16520px)}72.1%{transform:translateX(-16756px)}72.9%{transform:translateX(-16992px)}73.3%{transform:translateX(-17228px)}73.8%{transform:translateX(-17464px)}74.2%{transform:translateX(-17700px)}74.6%{transform:translateX(-17936px)}74.9%{transform:translateX(-18172px)}75.3%{transform:translateX(-18408px)}75.7%{transform:translateX(-18644px)}76.1%{transform:translateX(-18880px)}76.5%{transform:translateX(-19116px)}77.2%{transform:translateX(-19352px)}81%{transform:translateX(-19588px)}81.1%{transform:translateX(-19824px)}81.2%{transform:translateX(-20296px)}87.5%{transform:translateX(-20532px)}99.9%{transform:translateX(-20768px)}}.a{fill:#282d35}.f,.g,.h,.i{fill:#71bef2;white-space:pre}.g,.h,.i{fill:#a8cc8c}.h,.i{fill:#66c2cd}.i{fill:#b9c0cb}</style><g font-family="Monaco,Consolas,Menlo,'Bitstream Vera Sans Mono','Powerline Symbols',monospace" font-size="1.67"><defs><symbol id="1"><text y="1.67" class="f">#</text><text x="2.004" y="1.67" class="f">Episode</text><text x="10.02" y="1.67" class="f">9:</text><text x="13.026" y="1.67" class="f">GUI</text><text x="17.034" y="1.67" class="f">Integration</text></symbol><symbol id="2"><text y="1.67" class="f">#</text><text x="2.004" y="1.67" class="f">Integrate</text><text x="12.024" y="1.67" class="f">ARX</text><text x="16.032" y="1.67" class="f">into</text><text x="21.042" y="1.67" class="f">your</text><text x="26.052" y="1.67" class="f">file</text><text x="31.062" y="1.67" class="f">manager.</text></symbol><symbol id="3"><text y="1.67" class="g">➜</text><text x="2.004" y="1.67" class="h">arx-demo</text><text x="11.022" y="1.67" class="i">$</text><text x="13.026" y="1.67" class="i">#</text></symbol><symbol id="4"><text y="1.67" class="g">➜</text><text x="2.004" y="1.67" class="h">arx-demo</text><text x="11.022" y="1.67" class="i">$</text><text x="13.026" y="1.67" class="i">#</text><text x="15.03" y="1.67" class="i">Supports</text></symbol><symbol id="5"><text y="1.67" class="g">➜</text><text x="2.004" y="1.67" class="h">arx-demo</text><text x="11.022" y="1.67" class="i">$</text><text x="13.026" y="1.67" class="i">#</text><text x="15.03" y="1.67" class="i">Supports</text><text x="24.048" y="1.67" class="i">Nautilus,</text></symbol><symbol id="6"><text y="1.67" class="g">➜</text><text x="2.004" y="1.67" class="h">arx-demo</text><text x="11.022" y="1.67" class="i">$</text><text x="13.026" y="1.67" class="i">#</text><text x="15.03" y="1.67" class="i">Supports</text><text x="24.048" y="1.67" class="i">Nautilus,</text><text x="34.068" y="1.67" class="i">Dolphin,</text></symbol><symbol id="7"><text y="1.67" class="g">➜</text><text x="2.004" y="1.67" class="h">arx-demo</text><text x="11.022" y="1.67" class="i">$</text><text x="13.026" y="1.67" class="i">#</text><text x="15.03" y="1.67" class="i">Supports</text><text x="24.048" y="1.67" class="i">Nautilus,</text><text x="34.068" y="1.67" class="i">Dolphin,</text><text x="43.086" y="1.67" class="i">and</text></symbol><symbol id="8"><text y="1.67" class="g">➜</text><text x="2.004" y="1.67" class="h">arx-demo</text><text x="11.022" y="1.67" class="i">$</text><text x="13.026" y="1.67" class="i">#</text><text x="15.03" y="1.67" class="i">Supports</text><text x="24.048" y="1.67" class="i">Nautilus,</text><text x="34.068" y="1.67" class="i">Dolphin,</text><text x="43.086" y="1.67" class="i">and</text><text x="47.094" y="1.67" class="i">Thunar</text></symbol><symbol id="9"><text y="1.67" class="g">➜</text><text x="2.004" y="1.67" class="h">arx-demo</text><text x="11.022" y="1.67" class="i">$</text><text x="13.026" y="1.67" class="i">cd</text></symbol><symbol id="10"><text y="1.67" class="g">➜</text><text x="2.004" y="1.67" class="h">arx-demo</text><text x="11.022" y="1.67" class="i">$</text><text x="13.026" y="1.67" class="i">cd</text><text x="16.032" y="1.67" class="i">~/bin</text></symbol><symbol id="11"><text y="1.67" class="g">➜</text><text x="2.004" y="1.67" class="h">arx-demo</text><text x="11.022" y="1.67" class="i">$</text><text x="13.026" y="1.67" class="i">./install-gui-integration.sh</text></symbol><symbol id="12"><text y="1.67" class="i">ARX</text><text x="4.008" y="1.67" class="i">GUI</text><text x="8.016" y="1.67" class="i">Integration</text><text x="20.04" y="1.67" class="i">Installer</text></symbol><symbol id="13"><text y="1.67" class="i">=============================</text></symbol><symbol id="14"><text y="1.67" class="i">Installing</text><text x="11.022" y="1.67" class="i">Dolphin</text><text x="19.038" y="1.67" class="i">integration...</text></symbol><symbol id="15"><text y="1.67" class="i">✓</text><text x="2.004" y="1.67" class="i">Dolphin</text><text x="10.02" y="1.67" class="i">integration</text><text x="22.044" y="1.67" class="i">installed</text></symbol><symbol id="16"><text y="1.67" class="i">Installation</text><text x="13.026" y="1.67" class="i">complete!</text></symbol><symbol id="17"><text y="1.67" class="i">Restart</text><text x="8.016" y="1.67" class="i">your</text><text x="13.026" y="1.67" class="i">file</text><text x="18.036" y="1.67" class="i">manager</text><text x="26.052" y="1.67" class="i">to</text><text x="29.058" y="1.67" class="i">see</text><text x="33.066" y="1.67" class="i">ARX</text><text x="37.074" y="1.67" class="i">in</text><text x="40.08" y="1.67" class="i">the</text><text x="44.088" y="1.67" class="i">context</text><text x="52.104" y="1.67" class="i">menu.</text></symbol><symbol id="18"><text y="1.67" class="f">#</text><text x="2.004" y="1.67" class="f">Now</text><text x="6.012" y="1.67" class="f">you</text><text x="10.02" y="1.67" class="f">can</text><text x="14.028" y="1.67" class="f">right-click</text><text x="26.052" y="1.67" class="f">files</text><text x="32.064" y="1.67" class="f">to</text><text x="35.07" y="1.67" class="f">compress/extract!</text></symbol><symbol id="a"><path fill="transparent" d="M0 0h236v58H0z"/></symbol></defs><path class="a" d="M0 0h236v125.918H0z"/><g style="animation-duration:16.407357s;animation-iteration-count:infinite;animation-name:k;animation-timing-function:steps(1,end)"><svg width="21004"><svg><use xlink:href="#a"/></svg><svg x="236"><use xlink:href="#a"/></svg><svg x="472"><use xlink:href="#a"/><text y="1.67" class="i">Starting</text><text x="9.018" y="1.67" class="i">ARX</text><text x="13.026" y="1.67" class="i">Demo...</text></svg><svg x="708"><use xlink:href="#a"/><use xlink:href="#1" y="2.171"/></svg><svg x="944"><use xlink:href="#a"/><use xlink:href="#1" y="2.171"/><use xlink:href="#2" y="6.513"/></svg><svg x="1180"><use xlink:href="#a"/><use xlink:href="#1" y="2.171"/><use xlink:href="#2" y="6.513"/><use xlink:href="#3" y="8.684"/></svg><svg x="1416"><use xlink:href="#a"/><use xlink:href="#1" y="2.171"/><use xlink:href="#2" y="6.513"/><use xlink:href="#3" y="8.684"/></svg><svg x="1652"><use xlink:href="#a"/><use xlink:href="#1" y="2.171"/><use xlink:href="#2" y="6.513"/><text y="10.354" class="g">➜</text><text x="2.004" y="10.354" class="h">arx-demo</text><text x="11.022" y="10.354" class="i">$</text><text x="13.026" y="10.354" class="i">#</text><text x="15.03" y="10.354" class="i">S</text></svg><svg x="1888"><use xlink:href="#a"/><use xlink:href="#1" y="2.171"/><use xlink:href="#2" y="6.513"/><text y="10.354" class="g">➜</text><text x="2.004" y="10.354" class="h">arx-demo</text><text x="11.022" y="10.354" class="i">$</text><text x="13.026" y="10.354" class="i">#</text><text x="15.03" y="10.354" class="i">Su</text></svg><svg x="2124"><use xlink:href="#a"/><use xlink:href="#1" y="2.171"/><use xlink:href="#2" y="6.513"/><text y="10.354" class="g">➜</text><text x="2.004" y="10.354" class="h">arx-demo</text><text x="11.022" y="10.354" class="i">$</text><text x="13.026" y="10.354" class="i">#</text><text x="15.03" y="10.354" class="i">Sup</text></svg><svg x="2360"><use xlink:href="#a"/><use xlink:href="#1" y="2.171"/><use xlink:href="#2" y="6.513"/><text y="10.354" class="g">➜</text><text x="2.004" y="10.354" class="h">arx-demo</text><text x="11.022" y="10.354" class="i">$</text><text x="13.026" y="10.354" class="i">#</text><text x="15.03" y="10.354" class="i">Supp</text></svg><svg x="2596"><use xlink:href="#a"/><use xlink:href="#1" y="2.171"/><use xlink:href="#2" y="6.513"/><text y="10.354" class="g">➜</text><text x="2.004" y="10.354" class="h">arx-demo</text><text x="11.022" y="10.354" class="i">$</text><text x="13.026" y="10.354" class="i">#</text><text x="15.03" y="10.354" class="i">Suppo</text></svg><svg x="2832"><use xlink:href="#a"/><use xlink:href="#1" y="2.171"/><use xlink:href="#2" y="6.513"/><text y="10.354" class="g">➜</text><text x="2.004" y="10.354" class="h">arx-demo</text><text x="11.022" y="10.354" class="i">$</text><text x="13.026" y="10.354" class="i">#</text><text x="15.03" y="10.354" class="i">Suppor</text></svg><svg x="3068"><use xlink:href="#a"/><use xlink:href="#1" y="2.171"/><use xlink:href="#2" y="6.513"/><text y="10.354" class="g">➜</text><text x="2.004" y="10.354" class="h">arx-demo</text><text x="11.022" y="10.354" class="i">$</text><text x="13.026" y="10.354" class="i">#</text><text x="15.03" y="10.354" class="i">Support</text></svg><svg x="3304"><use xlink:href="#a"/><use xlink:href="#1" y="2.171"/><use xlink:href="#2" y="6.513"/><use xlink:href="#4" y="8.684"/></svg><svg x="3540"><use xlink:href="#a"/><use xlink:href="#1" y="2.171"/><use xlink:href="#2" y="6.513"/><use xlink:href="#4" y="8.684"/></svg><svg x="3776"><use xlink:href="#a"/><use xlink:href="#1" y="2.171"/><use xlink:href="#2" y="6.513"/><text y="10.354" class="g">➜</text><text x="2.004" y="10.354" class="h">arx-demo</text><text x="11.022" y="10.354" class="i">$</text><text x="13.026" y="10.354" class="i">#</text><text x="15.03" y="10.354" class="i">Supports</text><text x="24.048" y="10.354" class="i">N</text></svg><svg x="4012"><use xlink:href="#a"/><use xlink:href="#1" y="2.171"/><use xlink:href="#2" y="6.513"/><text y="10.354" class="g">➜</text><text x="2.004" y="10.354" class="h">arx-demo</text><text x="11.022" y="10.354" class="i">$</text><text x="13.026" y="10.354" class="i">#</text><text x="15.03" y="10.354" class="i">Supports</text><text x="24.048" y="10.354" class="i">Na</text></svg><svg x="4248"><use xlink:href="#a"/><use xlink:href="#1" y="2.171"/><use xlink:href="#2" y="6.513"/><text y="10.354" class="g">➜</text><text x="2.004" y="10.354" class="h">arx-demo</text><text x="11.022" y="10.354" class="i">$</text><text x="13.026" y="10.354" class="i">#</text><text x="15.03" y="10.354" class="i">Supports</text><text x="24.048" y="10.354" class="i">Nau</text></svg><svg x="4484"><use xlink:href="#a"/><use xlink:href="#1" y="2.171"/><use xlink:href="#2" y="6.513"/><text y="10.354" class="g">➜</text><text x="2.004" y="10.354" class="h">arx-demo</text><text x="11.022" y="10.354" class="i">$</text><text x="13.026" y="10.354" class="i">#</text><text x="15.03" y="10.354" class="i">Supports</text><text x="24.048" y="10.354" class="i">Naut</text></svg><svg x="4720"><use xlink:href="#a"/><use xlink:href="#1" y="2.171"/><use xlink:href="#2" y="6.513"/><text y="10.354" class="g">➜</text><text x="2.004" y="10.354" class="h">arx-demo</text><text x="11.022" y="10.354" class="i">$</text><text x="13.026" y="10.354" class="i">#</text><text x="15.03" y="10.354" class="i">Supports</text><text x="24.048" y="10.354" class="i">Nauti</text></svg><svg x="4956"><use xlink:href="#a"/><use xlink:href="#1" y="2.171"/><use xlink:href="#2" y="6.513"/><text y="10.354" class="g">➜</text><text x="2.004" y="10.354" class="h">arx-demo</text><text x="11.022" y="10.354" class="i">$</text><text x="13.026" y="10.354" class="i">#</text><text x="15.03" y="10.354" class="i">Supports</text><text x="24.048" y="10.354" class="i">Nautil</text></svg><svg x="5192"><use xlink:href="#a"/><use xlink:href="#1" y="2.171"/><use xlink:href="#2" y="6.513"/><text y="10.354" class="g">➜</text><text x="2.004" y="10.354" class="h">arx-demo</text><text x="11.022" y="10.354" class="i">$</text><text x="13.026" y="10.354" class="i">#</text><text x="15.03" y="10.354" class="i">Supports</text><text x="24.048" y="10.354" class="i">Nautilu</text></svg><svg x="5428"><use xlink:href="#a"/><use xlink:href="#1" y="2.171"/><use xlink:href="#2" y="6.513"/><text y="10.354" class="g">➜</text><text x="2.004" y="10.354" class="h">arx-demo</text><text x="11.022" y="10.354" class="i">$</text><text x="13.026" y="10.354" class="i">#</text><text x="15.03" y="10.354" class="i">Supports</text><text x="24.048" y="10.354" class="i">Nautilus</text></svg><svg x="5664"><use xlink:href="#a"/><use xlink:href="#1" y="2.171"/><use xlink:href="#2" y="6.513"/><use xlink:href="#5" y="8.684"/></svg><svg x="5900"><use xlink:href="#a"/><use xlink:href="#1" y="2.171"/><use xlink:href="#2" y="6.513"/><use xlink:href="#5" y="8.684"/></svg><svg x="6136"><use xlink:href="#a"/><use xlink:href="#1" y="2.171"/><use xlink:href="#2" y="6.513"/><text y="10.354" class="g">➜</text><text x="2.004" y="10.354" class="h">arx-demo</text><text x="11.022" y="10.354" class="i">$</text><text x="13.026" y="10.354" class="i">#</text><text x="15.03" y="10.354" class="i">Supports</text><text x="24.048" y="10.354" class="i">Nautilus,</text><text x="34.068" y="10.354" class="i">D</text></svg><svg x="6372"><use xlink:href="#a"/><use xlink:href="#1" y="2.171"/><use xlink:href="#2" y="6.513"/><text y="10.354" class="g">➜</text><text x="2.004" y="10.354" class="h">arx-demo</text><text x="11.022" y="10.354" class="i">$</text><text x="13.026" y="10.354" class="i">#</text><text x="15.03" y="10.354" class="i">Supports</text><text x="24.048" y="10.354" class="i">Nautilus,</text><text x="34.068" y="10.354" class="i">Do</text></svg><svg x="6608"><use xlink:href="#a"/><use xlink:href="#1" y="2.171"/><use xlink:href="#2" y="6.513"/><text y="10.354" class="g">➜</text><text x="2.004" y="10.354" class="h">arx-demo</text><text x="11.022" y="10.354" class="i">$</text><text x="13.026" y="10.354" class="i">#</text><text x="15.03" y="10.354" class="i">Supports</text><text x="24.048" y="10.354" class="i">Nautilus,</text><text x="34.068" y="10.354" class="i">Dol</text></svg><svg x="6844"><use xlink:href="#a"/><use xlink:href="#1" y="2.171"/><use xlink:href="#2" y="6.513"/><text y="10.354" class="g">➜</text><text x="2.004" y="10.354" class="h">arx-demo</text><text x="11.022" y="10.354" class="i">$</text><text x="13.026" y="10.354" class="i">#</text><text x="15.03" y="10.354" class="i">Supports</text><text x="24.048" y="10.354" class="i">Nautilus,</text><text x="34.068" y="10.354" class="i">Dolp</text></svg><svg x="7080"><use xlink:href="#a"/><use xlink:href="#1" y="2.171"/><use xlink:href="#2" y="6.513"/><text y="10.354" class="g">➜</text><text x="2.004" y="10.354" class="h">arx-demo</text><text x="11.022" y="10.354" class="i">$</text><text x="13.026" y="10.354" class="i">#</text><text x="15.03" y="10.354" class="i">Supports</text><text x="24.048" y="10.354" class="i">Nautilus,</text><text x="34.068" y="10.354" class="i">Dolph</text></svg><svg x="7316"><use xlink:href="#a"/><use xlink:href="#1" y="2.171"/><use xlink:href="#2" y="6.513"/><text y="10.354" class="g">➜</text><text x="2.004" y="10.354" class="h">arx-demo</text><text x="11.022" y="10.354" class="i">$</text><text x="13.026" y="10.354" class="i">#</text><text x="15.03" y="10.354" class="i">Supports</text><text x="24.048" y="10.354" class="i">Nautilus,</text><text x="34.068" y="10.354" class="i">Dolphi</text></svg><svg x="7552"><use xlink:href="#a"/><use xlink:href="#1" y="2.171"/><use xlink:href="#2" y="6.513"/><text y="10.354" class="g">➜</text><text x="2.004" y="10.354" class="h">arx-demo</text><text x="11.022" y="10.354" class="i">$</text><text x="13.026" y="10.354" class="i">#</text><text x="15.03" y="10.354" class="i">Supports</text><text x="24.048" y="10.354" class="i">Nautilus,</text><text x="34.068" y="10.354" class="i">Dolphin</text></svg><svg x="7788"><use xlink:href="#a"/><use xlink:href="#1" y="2.171"/><use xlink:href="#2" y="6.513"/><use xlink:href="#6" y="8.684"/></svg><svg x="8024"><use xlink:href="#a"/><use xlink:href="#1" y="2.171"/><use xlink:href="#2" y="6.513"/><use xlink:href="#6" y="8.684"/></svg><svg x="8260"><use xlink:href="#a"/><use xlink:href="#1" y="2.171"/><use xlink:href="#2" y="6.513"/><text y="10.354" class="g">➜</text><text x="2.004" y="10.354" class="h">arx-demo</text><text x="11.022" y="10.354" class="i">$</text><text x="13.026" y="10.354" class="i">#</text><text x="15.03" y="10.354" class="i">Supports</text><text x="24.048" y="10.354" class="i">Nautilus,</text><text x="34.068" y="10.354" class="i">Dolphin,</text><text x="43.086" y="10.354" class="i">a</text></svg><svg x="8496"><use xlink:href="#a"/><use xlink:href="#1" y="2.171"/><use xlink:href="#2" y="6.513"/><text y="10.354" class="g">➜</text><text x="2.004" y="10.354" class="h">arx-demo</text><text x="11.022" y="10.354" class="i">$</text><text x="13.026" y="10.354" class="i">#</text><text x="15.03" y="10.354" class="i">Supports</text><text x="24.048" y="10.354" class="i">Nautilus,</text><text x="34.068" y="10.354" class="i">Dolphin,</text><text x="43.086" y="10.354" class="i">an</text></svg><svg x="8732"><use xlink:href="#a"/><use xlink:href="#1" y="2.171"/><use xlink:href="#2" y="6.513"/><use xlink:href="#7" y="8.684"/></svg><svg x="8968"><use xlink:href="#a"/><use xlink:href="#1" y="2.171"/><use xlink:href="#2" y="6.513"/><use xlink:href="#7" y="8.684"/></svg><svg x="9204"><use xlink:href="#a"/><use xlink:href="#1" y="2.171"/><use xlink:href="#2" y="6.513"/><text y="10.354" class="g">➜</text><text x="2.004" y="10.354" class="h">arx-demo</text><text x="11.022" y="10.354" class="i">$</text><text x="13.026" y="10.354" class="i">#</text><text x="15.03" y="10.354" class="i">Supports</text><text x="24.048" y="10.354" class="i">Nautilus,</text><text x="34.068" y="10.354" class="i">Dolphin,</text><text x="43.086" y="10.354" class="i">and</text><text x="47.094" y="10.354" class="i">T</text></svg><svg x="9440"><use xlink:href="#a"/><use xlink:href="#1" y="2.171"/><use xlink:href="#2" y="6.513"/><text y="10.354" class="g">➜</text><text x="2.004" y="10.354" class="h">arx-demo</text><text x="11.022" y="10.354" class="i">$</text><text x="13.026" y="10.354" class="i">#</text><text x="15.03" y="10.354" class="i">Supports</text><text x="24.048" y="10.354" class="i">Nautilus,</text><text x="34.068" y="10.354" class="i">Dolphin,</text><text x="43.086" y="10.354" class="i">and</text><text x="47.094" y="10.354" class="i">Th</text></svg><svg x="9676"><use xlink:href="#a"/><use xlink:href="#1" y="2.171"/><use xlink:href="#2" y="6.513"/><text y="10.354" class="g">➜</text><text x="2.004" y="10.354" class="h">arx-demo</text><text x="11.022" y="10.354" class="i">$</text><text x="13.026" y="10.354" class="i">#</text><text x="15.03" y="10.354" class="i">Supports</text><text x="24.048" y="10.354" class="i">Nautilus,</text><text x="34.068" y="10.354" class="i">Dolphin,</text><text x="43.086" y="10.354" class="i">and</text><text x="47.094" y="10.354" class="i">Thu</text></svg><svg x="9912"><use xlink:href="#a"/><use xlink:href="#1" y="2.171"/><use xlink:href="#2" y="6.513"/><text y="10.354" class="g">➜</text><text x="2.004" y="10.354" class="h">arx-demo</text><text x="11.022" y="10.354" class="i">$</text><text x="13.026" y="10.354" class="i">#</text><text x="15.03" y="10.354" class="i">Supports</text><text x="24.048" y="10.354" class="i">Nautilus,</text><text x="34.068" y="10.354" class="i">Dolphin,</text><text x="43.086" y="10.354" class="i">and</text><text x="47.094" y="10.354" class="i">Thun</text></svg><svg x="10148"><use xlink:href="#a"/><use xlink:href="#1" y="2.171"/><use xlink:href="#2" y="6.513"/><text y="10.354" class="g">➜</text><text x="2.004" y="10.354" class="h">arx-demo</text><text x="11.022" y="10.354" class="i">$</text><text x="13.026" y="10.354" class="i">#</text><text x="15.03" y="10.354" class="i">Supports</text><text x="24.048" y="10.354" class="i">Nautilus,</text><text x="34.068" y="10.354" class="i">Dolphin,</text><text x="43.086" y="10.354" class="i">and</text><text x="47.094" y="10.354" class="i">Thuna</text></svg><svg x="10384"><use xlink:href="#a"/><use xlink:href="#1" y="2.171"/><use xlink:href="#2" y="6.513"/><use xlink:href="#8" y="8.684"/></svg><svg x="10620"><use xlink:href="#a"/><use xlink:href="#1" y="2.171"/><use xlink:href="#2" y="6.513"/><use xlink:href="#8" y="8.684"/></svg><svg x="10856"><use xlink:href="#a"/><use xlink:href="#1" y="2.171"/><use xlink:href="#2" y="6.513"/><use xlink:href="#8" y="8.684"/><text y="12.525" class="g">➜</text><text x="2.004" y="12.525" class="h">arx-demo</text><text x="11.022" y="12.525" class="i">$</text><text x="13.026" y="12.525" class="i">c</text></svg><svg x="11092"><use xlink:href="#a"/><use xlink:href="#1" y="2.171"/><use xlink:href="#2" y="6.513"/><use xlink:href="#8" y="8.684"/><use xlink:href="#9" y="10.855"/></svg><svg x="11328"><use xlink:href="#a"/><use xlink:href="#1" y="2.171"/><use xlink:href="#2" y="6.513"/><use xlink:href="#8" y="8.684"/><use xlink:href="#9" y="10.855"/></svg><svg x="11564"><use xlink:href="#a"/><use xlink:href="#1" y="2.171"/><use xlink:href="#2" y="6.513"/><use xlink:href="#8" y="8.684"/><text y="12.525" class="g">➜</text><text x="2.004" y="12.525" class="h">arx-demo</text><text x="11.022" y="12.525" class="i">$</text><text x="13.026" y="12.525" class="i">cd</text><text x="16.032" y="12.525" class="i">~</text></svg><svg x="11800"><use xlink:href="#a"/><use xlink:href="#1" y="2.171"/><use xlink:href="#2" y="6.513"/><use xlink:href="#8" y="8.684"/><text y="12.525" class="g">➜</text><text x="2.004" y="12.525" class="h">arx-demo</text><text x="11.022" y="12.525" class="i">$</text><text x="13.026" y="12.525" class="i">cd</text><text x="16.032" y="12.525" class="i">~/</text></svg><svg x="12036"><use xlink:href="#a"/><use xlink:href="#1" y="2.171"/><use xlink:href="#2" y="6.513"/><use xlink:href="#8" y="8.684"/><text y="12.525" class="g">➜</text><text x="2.004" y="12.525" class="h">arx-demo</text><text x="11.022" y="12.525" class="i">$</text><text x="13.026" y="12.525" class="i">cd</text><text x="16.032" y="12.525" class="i">~/b</text></svg><svg x="12272"><use xlink:href="#a"/><use xlink:href="#1" y="2.171"/><use xlink:href="#2" y="6.513"/><use xlink:href="#8" y="8.684"/><text y="12.525" class="g">➜</text><text x="2.004" y="12.525" class="h">arx-demo</text><text x="11.022" y="12.525" class="i">$</text><text x="13.026" y="12.525" class="i">cd</text><text x="16.032" y="12.525" class="i">~/bi</text></svg><svg x="12508"><use xlink:href="#a"/><use xlink:href="#1" y="2.171"/><use xlink:href="#2" y="6.513"/><use xlink:href="#8" y="8.684"/><use xlink:href="#10" y="10.855"/></svg><svg x="12744"><use xlink:href="#a"/><use xlink:href="#1" y="2.171"/><use xlink:href="#2" y="6.513"/><use xlink:href="#8" y="8.684"/><use xlink:href="#10" y="10.855"/></svg><svg x="12980"><use xlink:href="#a"/><use xlink:href="#1" y="2.171"/><use xlink:href="#2" y="6.513"/><use xlink:href="#8" y="8.684"/><use xlink:href="#10" y="10.855"/><text y="14.696" class="g">➜</text><text x="2.004" y="14.696" class="h">arx-demo</text><text x="11.022" y="14.696" class="i">$</text><text x="13.026" y="14.696" class="i">.</text></svg><svg x="13216"><use xlink:href="#a"/><use xlink:href="#1" y="2.171"/><use xlink:href="#2" y="6.513"/><use xlink:href="#8" y="8.684"/><use xlink:href="#10" y="10.855"/><text y="14.696" class="g">➜</text><text x="2.004" y="14.696" class="h">arx-demo</text><text x="11.022" y="14.696" class="i">$</text><text x="13.026" y="14.696" class="i">./</text></svg><svg x="13452"><use xlink:href="#a"/><use xlink:href="#1" y="2.171"/><use xlink:href="#2" y="6.513"/><use xlink:href="#8" y="8.684"/><use xlink:href="#10" y="10.855"/><text y="14.696" class="g">➜</text><text x="2.004" y="14.696" class="h">arx-demo</text><text x="11.022" y="14.696" class="i">$</text><text x="13.026" y="14.696" class="i">./i</text></svg><svg x="13688"><use xlink:href="#a"/><use xlink:href="#1" y="2.171"/><use xlink:href="#2" y="6.513"/><use xlink:href="#8" y="8.684"/><use xlink:href="#10" y="10.855"/><text y="14.696" class="g">➜</text><text x="2.004" y="14.696" class="h">arx-demo</text><text x="11.022" y="14.696" class="i">$</text><text x="13.026" y="14.696" class="i">./in</text></svg><svg x="13924"><use xlink:href="#a"/><use xlink:href="#1" y="2.171"/><use xlink:href="#2" y="6.513"/><use xlink:href="#8" y="8.684"/><use xlink:href="#10" y="10.855"/><text y="14.696" class="g">➜</text><text x="2.004" y="14.696" class="h">arx-demo</text><text x="11.022" y="14.696" class="i">$</text><text x="13.026" y="14.696" class="i">./ins</text></svg><svg x="14160"><use xlink:href="#a"/><use xlink:href="#1" y="2.171"/><use xlink:href="#2" y="6.513"/><use xlink:href="#8" y="8.684"/><use xlink:href="#10" y="10.855"/><text y="14.696" class="g">➜</text><text x="2.004" y="14.696" class="h">arx-demo</text><text x="11.022" y="14.696" class="i">$</text><text x="13.026" y="14.696" class="i">./inst</text></svg><svg x="14396"><use xlink:href="#a"/><use xlink:href="#1" y="2.171"/><use xlink:href="#2" y="6.513"/><use xlink:href="#8" y="8.684"/><use xlink:href="#10" y="10.855"/><text y="14.696" class="g">➜</text><text x="2.004" y="14.696" class="h">arx-demo</text><text x="11.022" y="14.696" class="i">$</text><text x="13.026" y="14.696" class="i">./insta</text></svg><svg x="14632"><use xlink:href="#a"/><use xlink:href="#1" y="2.171"/><use xlink:href="#2" y="6.513"/><use xlink:href="#8" y="8.684"/><use xlink:href="#10" y="10.855"/><text y="14.696" class="g">➜</text><text x="2.004" y="14.696" class="h">arx-demo</text><text x="11.022" y="14.696" class="i">$</text><text x="13.026" y="14.696" class="i">./instal</text></svg><svg x="14868"><use xlink:href="#a"/><use xlink:href="#1" y="2.171"/><use xlink:href="#2" y="6.513"/><use xlink:href="#8" y="8.684"/><use xlink:href="#10" y="10.855"/><text y="14.696" class="g">➜</text><text x="2.004" y="14.696" class="h">arx-demo</text><text x="11.022" y="14.696" class="i">$</text><text x="13.026" y="14.696" class="i">./install</text></svg><svg x="15104"><use xlink:href="#a"/><use xlink:href="#1" y="2.171"/><use xlink:href="#2" y="6.513"/><use xlink:href="#8" y="8.684"/><use xlink:href="#10" y="10.855"/><text y="14.696" class="g">➜</text><text x="2.004" y="14.696" class="h">arx-demo</text><text x="11.022" y="14.696" class="i">$</text><text x="13.026" y="14.696" class="i">./install-</text></svg><svg x="15340"><use xlink:href="#a"/><use xlink:href="#1" y="2.171"/><use xlink:href="#2" y="6.513"/><use xlink:href="#8" y="8.684"/><use xlink:href="#10" y="10.855"/><text y="14.696" class="g">➜</text><text x="2.004" y="14.696" class="h">arx-demo</text><text x="11.022" y="14.696" class="i">$</text><text x="13.026" y="14.696" class="i">./install-g</text></svg><svg x="15576"><use xlink:href="#a"/><use xlink:href="#1" y="2.171"/><use xlink:href="#2" y="6.513"/><use xlink:href="#8" y="8.684"/><use xlink:href="#10" y="10.855"/><text y="14.696" class="g">➜</text><text x="2.004" y="14.696" class="h">arx-demo</text><text x="11.022" y="14.696" class="i">$</text><text x="13.026" y="14.696" class="i">./install-gu</text></svg><svg x="15812"><use xlink:href="#a"/><use xlink:href="#1" y="2.171"/><use xlink:href="#2" y="6.513"/><use xlink:href="#8" y="8.684"/><use xlink:href="#10" y="10.855"/><text y="14.696" class="g">➜</text><text x="2.004" y="14.696" class="h">arx-demo</text><text x="11.022" y="14.696" class="i">$</text><text x="13.026" y="14.696" class="i">./install-gui</text></svg><svg x="16048"><use xlink:href="#a"/><use xlink:href="#1" y="2.171"/><use xlink:href="#2" y="6.513"/><use xlink:href="#8" y="8.684"/><use xlink:href="#10" y="10.855"/><text y="14.696" class="g">➜</text><text x="2.004" y="14.696" class="h">arx-demo</text><text x="11.022" y="14.696" class="i">$</text><text x="13.026" y="14.696" class="i">./install-gui-</text></svg><svg x="16284"><use xlink:href="#a"/><use xlink:href="#1" y="2.171"/><use xlink:href="#2" y="6.513"/><use xlink:href="#8" y="8.684"/><use xlink:href="#10" y="10.855"/><text y="14.696" class="g">➜</text><text x="2.004" y="14.696" class="h">arx-demo</text><text x="11.022" y="14.696" class="i">$</text><text x="13.026" y="14.696" class="i">./install-gui-i</text></svg><svg x="16520"><use xlink:href="#a"/><use xlink:href="#1" y="2.171"/><use xlink:href="#2" y="6.513"/><use xlink:href="#8" y="8.684"/><use xlink:href="#10" y="10.855"/><text y="14.696" class="g">➜</text><text x="2.004" y="14.696" class="h">arx-demo</text><text x="11.022" y="14.696" class="i">$</text><text x="13.026" y="14.696" class="i">./install-gui-in</text></svg><svg x="16756"><use xlink:href="#a"/><use xlink:href="#1" y="2.171"/><use xlink:href="#2" y="6.513"/><use xlink:href="#8" y="8.684"/><use xlink:href="#10" y="10.855"/><text y="14.696" class="g">➜</text><text x="2.004" y="14.696" class="h">arx-demo</text><text x="11.022" y="14.696" class="i">$</text><text x="13.026" y="14.696" class="i">./install-gui-int</text></svg><svg x="16992"><use xlink:href="#a"/><use xlink:href="#1" y="2.171"/><use xlink:href="#2" y="6.513"/><use xlink:href="#8" y="8.684"/><use xlink:href="#10" y="10.855"/><text y="14.696" class="g">➜</text><text x="2.004" y="14.696" class="h">arx-demo</text><text x="11.022" y="14.696" class="i">$</text><text x="13.026" y="14.696" class="i">./install-gui-inte</text></svg><svg x="17228"><use xlink:href="#a"/><use xlink:href="#1" y="2.171"/><use xlink:href="#2" y="6.513"/><use xlink:href="#8" y="8.684"/><use xlink:href="#10" y="10.855"/><text y="14.696" class="g">➜</text><text x="2.004" y="14.696" class="h">arx-demo</text><text x="11.022" y="14.696" class="i">$</text><text x="13.026" y="14.696" class="i">./install-gui-integ</text></svg><svg x="17464"><use xlink:href="#a"/><use xlink:href="#1" y="2.171"/><use xlink:href="#2" y="6.513"/><use xlink:href="#8" y="8.684"/><use xlink:href="#10" y="10.855"/><text y="14.696" class="g">➜</text><text x="2.004" y="14.696" class="h">arx-demo</text><text x="11.022" y="14.696" class="i">$</text><text x="13.026" y="14.696" class="i">./install-gui-integr</text></svg><svg x="17700"><use xlink:href="#a"/><use xlink:href="#1" y="2.171"/><use xlink:href="#2" y="6.513"/><use xlink:href="#8" y="8.684"/><use xlink:href="#10" y="10.855"/><text y="14.696" class="g">➜</text><text x="2.004" y="14.696" class="h">arx-demo</text><text x="11.022" y="14.696" class="i">$</text><text x="13.026" y="14.696" class="i">./install-gui-integra</text></svg><svg x="17936"><use xlink:href="#a"/><use xlink:href="#1" y="2.171"/><use xlink:href="#2" y="6.513"/><use xlink:href="#8" y="8.684"/><use xlink:href="#10" y="10.855"/><text y="14.696" class="g">➜</text><text x="2.004" y="14.696" class="h">arx-demo</text><text x="11.022" y="14.696" class="i">$</text><text x="13.026" y="14.696" class="i">./install-gui-integrat</text></svg><svg x="18172"><use xlink:href="#a"/><use xlink:href="#1" y="2.171"/><use xlink:href="#2" y="6.513"/><use xlink:href="#8" y="8.684"/><use xlink:href="#10" y="10.855"/><text y="14.696" class="g">➜</text><text x="2.004" y="14.696" class="h">arx-demo</text><text x="11.022" y="14.696" class="i">$</text><text x="13.026" y="14.696" class="i">./install-gui-integrati</text></svg><svg x="18408"><use xlink:href="#a"/><use xlink:href="#1" y="2.171"/><use xlink:href="#2" y="6.513"/><use xlink:href="#8" y="8.684"/><use xlink:href="#10" y="10.855"/><text y="14.696" class="g">➜</text><text x="2.004" y="14.696" class="h">arx-demo</text><text x="11.022" y="14.696" class="i">$</text><text x="13.026" y="14.696" class="i">./install-gui-integratio</text></svg><svg x="18644"><use xlink:href="#a"/><use xlink:href="#1" y="2.171"/><use xlink:href="#2" y="6.513"/><use xlink:href="#8" y="8.684"/><use xlink:href="#10" y="10.855"/><text y="14.696" class="g">➜</text><text x="2.004" y="14.696" class="h">arx-demo</text><text x="11.022" y="14.696" class="i">$</text><text x="13.026" y="14.696" class="i">./install-gui-integration</text></svg><svg x="18880"><use xlink:href="#a"/><use xlink:href="#1" y="2.171"/><use xlink:href="#2" y="6.513"/><use xlink:href="#8" y="8.684"/><use xlink:href="#10" y="10.855"/><text y="14.696" class="g">➜</text><text x="2.004" y="14.696" class="h">arx-demo</text><text x="11.022" y="14.696" class="i">$</text><text x="13.026" y="14.696" class="i">./install-gui-integration.</text></svg><svg x="19116"><use xlink:href="#a"/><use xlink:href="#1" y="2.171"/><use xlink:href="#2" y="6.513"/><use xlink:href="#8" y="8.684"/><use xlink:href="#10" y="10.855"/><text y="14.696" class="g">➜</text><text x="2.004" y="14.696" class="h">arx-demo</text><text x="11.022" y="14.696" class="i">$</text><text x="13.026" y="14.696" class="i">./install-gui-integration.s</text></svg><svg x="19352"><use xlink:href="#a"/><use xlink:href="#1" y="2.171"/><use xlink:href="#2" y="6.513"/><use xlink:href="#8" y="8.684"/><use xlink:href="#10" y="10.855"/><use xlink:href="#11" y="13.026"/></svg><svg x="19588"><use xlink:href="#a"/><use xlink:href="#1" y="2.171"/><use xlink:href="#2" y="6.513"/><use xlink:href="#8" y="8.684"/><use xlink:href="#10" y="10.855"/><use xlink:href="#11" y="13.026"/></svg><svg x="19824"><use xlink:href="#a"/><use xlink:href="#1" y="2.171"/><use xlink:href="#2" y="6.513"/><use xlink:href="#8" y="8.684"/><use xlink:href="#10" y="10.855"/><use xlink:href="#11" y="13.026"/><use xlink:href="#12" y="15.197"/><use xlink:href="#13" y="17.368"/></svg><svg x="20060"><use xlink:href="#a"/><use xlink:href="#1" y="2.171"/><use xlink:href="#2" y="6.513"/><use xlink:href="#8" y="8.684"/><use xlink:href="#10" y="10.855"/><use xlink:href="#11" y="13.026"/><use xlink:href="#12" y="15.197"/><use xlink:href="#13" y="17.368"/><use xlink:href="#14" y="21.71"/></svg><svg x="20296"><use xlink:href="#a"/><use xlink:href="#1" y="2.171"/><use xlink:href="#2" y="6.513"/><use xlink:href="#8" y="8.684"/><use xlink:href="#10" y="10.855"/><use xlink:href="#11" y="13.026"/><use xlink:href="#12" y="15.197"/><use xlink:href="#13" y="17.368"/><use xlink:href="#14" y="21.71"/><use xlink:href="#15" y="23.881"/><use xlink:href="#16" y="28.223"/><use xlink:href="#17" y="30.394"/></svg><svg x="20532"><use xlink:href="#a"/><use xlink:href="#1" y="2.171"/><use xlink:href="#2" y="6.513"/><use xlink:href="#8" y="8.684"/><use xlink:href="#10" y="10.855"/><use xlink:href="#11" y="13.026"/><use xlink:href="#12" y="15.197"/><use xlink:href="#13" y="17.368"/><use xlink:href="#14" y="21.71"/><use xlink:href="#15" y="23.881"/><use xlink:href="#16" y="28.223"/><use xlink:href="#17" y="30.394"/><use xlink:href="#18" y="34.736"/></svg><svg x="20768"><use xlink:href="#a"/><use xlink:href="#1" y="2.171"/><use xlink:href="#2" y="6.513"/><use xlink:href="#8" y="8.684"/><use xlink:href="#10" y="10.855"/><use xlink:href="#11" y="13.026"/><use xlink:href="#12" y="15.197"/><use xlink:href="#13" y="17.368"/><use xlink:href="#14" y="21.71"/><use xlink:href="#15" y="23.881"/><use xlink:href="#16" y="28.223"/><use xlink:href="#17" y="30.394"/><use xlink:href="#18" y="34.736"/><text y="40.748" class="i">Demo</text><text x="5.01" y="40.748" class="i">finished.</text></svg></svg></g></g></svg></svg>