<svg xmlns="http://www.w3.org/2000/svg" xmlns:xlink="http://www.w3.org/1999/xlink" width="2400" height="1319.18"><rect width="2400" height="1319.18" rx="5" ry="5" class="a"/><svg y="0%" x="0%"><circle cx="20" cy="20" r="6" fill="#ff5f58"/><circle cx="40" cy="20" r="6" fill="#ffbd2e"/><circle cx="60" cy="20" r="6" fill="#18c132"/></svg><svg height="1259.18" viewBox="0 0 236 125.918" width="2360" x="15" xmlns="http://www.w3.org/2000/svg" xmlns:xlink="http://www.w3.org/1999/xlink" y="50"><style>@keyframes k{0%{transform:translateX(0)}.2%{transform:translateX(-236px)}9.6%{transform:translateX(-472px)}28.2%{transform:translateX(-708px)}46.3%{transform:translateX(-944px)}46.8%{transform:translateX(-1180px)}47.4%{transform:translateX(-1416px)}47.8%{transform:translateX(-1652px)}48.4%{transform:translateX(-1888px)}48.9%{transform:translateX(-2124px)}49.5%{transform:translateX(-2360px)}50.4%{transform:translateX(-2596px)}51.2%{transform:translateX(-2832px)}51.7%{transform:translateX(-3068px)}52.5%{transform:translateX(-3304px)}53.2%{transform:translateX(-3540px)}53.8%{transform:translateX(-3776px)}54.7%{transform:translateX(-4012px)}55.3%{transform:translateX(-4248px)}55.8%{transform:translateX(-4484px)}56.4%{transform:translateX(-4720px)}57%{transform:translateX(-4956px)}57.8%{transform:translateX(-5192px)}58.4%{transform:translateX(-5428px)}58.9%{transform:translateX(-5664px)}59.5%{transform:translateX(-5900px)}60%{transform:translateX(-6136px)}60.5%{transform:translateX(-6372px)}61.1%{transform:translateX(-6608px)}61.6%{transform:translateX(-6844px)}62.2%{transform:translateX(-7080px)}62.9%{transform:translateX(-7316px)}67.8%{transform:translateX(-7552px)}72.4%{transform:translateX(-7788px)}81.9%{transform:translateX(-8024px)}to{transform:translateX(-8260px)}}.a{fill:#282d35}.f,.g,.h,.i{fill:#71bef2;white-space:pre}.g,.h,.i{fill:#a8cc8c}.h,.i{fill:#66c2cd}.i{fill:#b9c0cb}</style><g font-family="Monaco,Consolas,Menlo,'Bitstream Vera Sans Mono','Powerline Symbols',monospace" font-size="1.67"><defs><symbol id="1"><text y="1.67" class="f">#</text><text x="2.004" y="1.67" class="f">Episode</text><text x="10.02" y="1.67" class="f">10:</text><text x="14.028" y="1.67" class="f">Configuration</text></symbol><symbol id="2"><text y="1.67" class="f">#</text><text x="2.004" y="1.67" class="f">Customize</text><text x="12.024" y="1.67" class="f">ARX</text><text x="16.032" y="1.67" class="f">defaults.</text></symbol><symbol id="3"><text y="1.67" class="g">➜</text><text x="2.004" y="1.67" class="h">arx-demo</text><text x="11.022" y="1.67" class="i">$</text><text x="13.026" y="1.67" class="i">#</text></symbol><symbol id="4"><text y="1.67" class="g">➜</text><text x="2.004" y="1.67" class="h">arx-demo</text><text x="11.022" y="1.67" class="i">$</text><text x="13.026" y="1.67" class="i">#</text><text x="15.03" y="1.67" class="i">Edit</text></symbol><symbol id="5"><text y="1.67" class="g">➜</text><text x="2.004" y="1.67" class="h">arx-demo</text><text x="11.022" y="1.67" class="i">$</text><text x="13.026" y="1.67" class="i">#</text><text x="15.03" y="1.67" class="i">Edit</text><text x="20.04" y="1.67" class="i">~/.config/arx/config</text></symbol><symbol id="6"><text y="1.67" class="g">➜</text><text x="2.004" y="1.67" class="h">arx-demo</text><text x="11.022" y="1.67" class="i">$</text><text x="13.026" y="1.67" class="i">cat</text><text x="17.034" y="1.67" class="i">~/.config/arx/config</text></symbol><symbol id="7"><text y="1.67" class="i">default_format</text><text x="15.03" y="1.67" class="i">=</text><text x="17.034" y="1.67" class="i">tar.zst</text></symbol><symbol id="8"><text y="1.67" class="i">default_level</text><text x="14.028" y="1.67" class="i">=</text><text x="16.032" y="1.67" class="i">5</text></symbol><symbol id="9"><text y="1.67" class="i">default_exclude</text><text x="16.032" y="1.67" class="i">=</text><text x="18.036" y="1.67" class="i">*.tmp</text></symbol><symbol id="10"><text y="1.67" class="f">#</text><text x="2.004" y="1.67" class="f">Now</text><text x="6.012" y="1.67" class="f">&apos;arx</text><text x="11.022" y="1.67" class="f">-c&apos;</text><text x="15.03" y="1.67" class="f">uses</text><text x="20.04" y="1.67" class="f">tar.zst</text><text x="28.056" y="1.67" class="f">by</text><text x="31.062" y="1.67" class="f">default!</text></symbol><symbol id="a"><path fill="transparent" d="M0 0h236v58H0z"/></symbol></defs><path class="a" d="M0 0h236v125.918H0z"/><g style="animation-duration:11.142551000000001s;animation-iteration-count:infinite;animation-name:k;animation-timing-function:steps(1,end)"><svg width="8496"><svg><use xlink:href="#a"/></svg><svg x="236"><use xlink:href="#a"/><text y="1.67" class="i">Starting</text><text x="9.018" y="1.67" class="i">ARX</text><text x="13.026" y="1.67" class="i">Demo...</text></svg><svg x="472"><use xlink:href="#a"/><use xlink:href="#1" y="2.171"/></svg><svg x="708"><use xlink:href="#a"/><use xlink:href="#1" y="2.171"/><use xlink:href="#2" y="6.513"/></svg><svg x="944"><use xlink:href="#a"/><use xlink:href="#1" y="2.171"/><use xlink:href="#2" y="6.513"/><use xlink:href="#3" y="8.684"/></svg><svg x="1180"><use xlink:href="#a"/><use xlink:href="#1" y="2.171"/><use xlink:href="#2" y="6.513"/><use xlink:href="#3" y="8.684"/></svg><svg x="1416"><use xlink:href="#a"/><use xlink:href="#1" y="2.171"/><use xlink:href="#2" y="6.513"/><text y="10.354" class="g">➜</text><text x="2.004" y="10.354" class="h">arx-demo</text><text x="11.022" y="10.354" class="i">$</text><text x="13.026" y="10.354" class="i">#</text><text x="15.03" y="10.354" class="i">E</text></svg><svg x="1652"><use xlink:href="#a"/><use xlink:href="#1" y="2.171"/><use xlink:href="#2" y="6.513"/><text y="10.354" class="g">➜</text><text x="2.004" y="10.354" class="h">arx-demo</text><text x="11.022" y="10.354" class="i">$</text><text x="13.026" y="10.354" class="i">#</text><text x="15.03" y="10.354" class="i">Ed</text></svg><svg x="1888"><use xlink:href="#a"/><use xlink:href="#1" y="2.171"/><use xlink:href="#2" y="6.513"/><text y="10.354" class="g">➜</text><text x="2.004" y="10.354" class="h">arx-demo</text><text x="11.022" y="10.354" class="i">$</text><text x="13.026" y="10.354" class="i">#</text><text x="15.03" y="10.354" class="i">Edi</text></svg><svg x="2124"><use xlink:href="#a"/><use xlink:href="#1" y="2.171"/><use xlink:href="#2" y="6.513"/><use xlink:href="#4" y="8.684"/></svg><svg x="2360"><use xlink:href="#a"/><use xlink:href="#1" y="2.171"/><use xlink:href="#2" y="6.513"/><use xlink:href="#4" y="8.684"/></svg><svg x="2596"><use xlink:href="#a"/><use xlink:href="#1" y="2.171"/><use xlink:href="#2" y="6.513"/><text y="10.354" class="g">➜</text><text x="2.004" y="10.354" class="h">arx-demo</text><text x="11.022" y="10.354" class="i">$</text><text x="13.026" y="10.354" class="i">#</text><text x="15.03" y="10.354" class="i">Edit</text><text x="20.04" y="10.354" class="i">~</text></svg><svg x="2832"><use xlink:href="#a"/><use xlink:href="#1" y="2.171"/><use xlink:href="#2" y="6.513"/><text y="10.354" class="g">➜</text><text x="2.004" y="10.354" class="h">arx-demo</text><text x="11.022" y="10.354" class="i">$</text><text x="13.026" y="10.354" class="i">#</text><text x="15.03" y="10.354" class="i">Edit</text><text x="20.04" y="10.354" class="i">~/</text></svg><svg x="3068"><use xlink:href="#a"/><use xlink:href="#1" y="2.171"/><use xlink:href="#2" y="6.513"/><text y="10.354" class="g">➜</text><text x="2.004" y="10.354" class="h">arx-demo</text><text x="11.022" y="10.354" class="i">$</text><text x="13.026" y="10.354" class="i">#</text><text x="15.03" y="10.354" class="i">Edit</text><text x="20.04" y="10.354" class="i">~/.</text></svg><svg x="3304"><use xlink:href="#a"/><use xlink:href="#1" y="2.171"/><use xlink:href="#2" y="6.513"/><text y="10.354" class="g">➜</text><text x="2.004" y="10.354" class="h">arx-demo</text><text x="11.022" y="10.354" class="i">$</text><text x="13.026" y="10.354" class="i">#</text><text x="15.03" y="10.354" class="i">Edit</text><text x="20.04" y="10.354" class="i">~/.c</text></svg><svg x="3540"><use xlink:href="#a"/><use xlink:href="#1" y="2.171"/><use xlink:href="#2" y="6.513"/><text y="10.354" class="g">➜</text><text x="2.004" y="10.354" class="h">arx-demo</text><text x="11.022" y="10.354" class="i">$</text><text x="13.026" y="10.354" class="i">#</text><text x="15.03" y="10.354" class="i">Edit</text><text x="20.04" y="10.354" class="i">~/.co</text></svg><svg x="3776"><use xlink:href="#a"/><use xlink:href="#1" y="2.171"/><use xlink:href="#2" y="6.513"/><text y="10.354" class="g">➜</text><text x="2.004" y="10.354" class="h">arx-demo</text><text x="11.022" y="10.354" class="i">$</text><text x="13.026" y="10.354" class="i">#</text><text x="15.03" y="10.354" class="i">Edit</text><text x="20.04" y="10.354" class="i">~/.con</text></svg><svg x="4012"><use xlink:href="#a"/><use xlink:href="#1" y="2.171"/><use xlink:href="#2" y="6.513"/><text y="10.354" class="g">➜</text><text x="2.004" y="10.354" class="h">arx-demo</text><text x="11.022" y="10.354" class="i">$</text><text x="13.026" y="10.354" class="i">#</text><text x="15.03" y="10.354" class="i">Edit</text><text x="20.04" y="10.354" class="i">~/.conf</text></svg><svg x="4248"><use xlink:href="#a"/><use xlink:href="#1" y="2.171"/><use xlink:href="#2" y="6.513"/><text y="10.354" class="g">➜</text><text x="2.004" y="10.354" class="h">arx-demo</text><text x="11.022" y="10.354" class="i">$</text><text x="13.026" y="10.354" class="i">#</text><text x="15.03" y="10.354" class="i">Edit</text><text x="20.04" y="10.354" class="i">~/.confi</text></svg><svg x="4484"><use xlink:href="#a"/><use xlink:href="#1" y="2.171"/><use xlink:href="#2" y="6.513"/><text y="10.354" class="g">➜</text><text x="2.004" y="10.354" class="h">arx-demo</text><text x="11.022" y="10.354" class="i">$</text><text x="13.026" y="10.354" class="i">#</text><text x="15.03" y="10.354" class="i">Edit</text><text x="20.04" y="10.354" class="i">~/.config</text></svg><svg x="4720"><use xlink:href="#a"/><use xlink:href="#1" y="2.171"/><use xlink:href="#2" y="6.513"/><text y="10.354" class="g">➜</text><text x="2.004" y="10.354" class="h">arx-demo</text><text x="11.022" y="10.354" class="i">$</text><text x="13.026" y="10.354" class="i">#</text><text x="15.03" y="10.354" class="i">Edit</text><text x="20.04" y="10.354" class="i">~/.config/</text></svg><svg x="4956"><use xlink:href="#a"/><use xlink:href="#1" y="2.171"/><use xlink:href="#2" y="6.513"/><text y="10.354" class="g">➜</text><text x="2.004" y="10.354" class="h">arx-demo</text><text x="11.022" y="10.354" class="i">$</text><text x="13.026" y="10.354" class="i">#</text><text x="15.03" y="10.354" class="i">Edit</text><text x="20.04" y="10.354" class="i">~/.config/a</text></svg><svg x="5192"><use xlink:href="#a"/><use xlink:href="#1" y="2.171"/><use xlink:href="#2" y="6.513"/><text y="10.354" class="g">➜</text><text x="2.004" y="10.354" class="h">arx-demo</text><text x="11.022" y="10.354" class="i">$</text><text x="13.026" y="10.354" class="i">#</text><text x="15.03" y="10.354" class="i">Edit</text><text x="20.04" y="10.354" class="i">~/.config/ar</text></svg><svg x="5428"><use xlink:href="#a"/><use xlink:href="#1" y="2.171"/><use xlink:href="#2" y="6.513"/><text y="10.354" class="g">➜</text><text x="2.004" y="10.354" class="h">arx-demo</text><text x="11.022" y="10.354" class="i">$</text><text x="13.026" y="10.354" class="i">#</text><text x="15.03" y="10.354" class="i">Edit</text><text x="20.04" y="10.354" class="i">~/.config/arx</text></svg><svg x="5664"><use xlink:href="#a"/><use xlink:href="#1" y="2.171"/><use xlink:href="#2" y="6.513"/><text y="10.354" class="g">➜</text><text x="2.004" y="10.354" class="h">arx-demo</text><text x="11.022" y="10.354" class="i">$</text><text x="13.026" y="10.354" class="i">#</text><text x="15.03" y="10.354" class="i">Edit</text><text x="20.04" y="10.354" class="i">~/.config/arx/</text></svg><svg x="5900"><use xlink:href="#a"/><use xlink:href="#1" y="2.171"/><use xlink:href="#2" y="6.513"/><text y="10.354" class="g">➜</text><text x="2.004" y="10.354" class="h">arx-demo</text><text x="11.022" y="10.354" class="i">$</text><text x="13.026" y="10.354" class="i">#</text><text x="15.03" y="10.354" class="i">Edit</text><text x="20.04" y="10.354" class="i">~/.config/arx/c</text></svg><svg x="6136"><use xlink:href="#a"/><use xlink:href="#1" y="2.171"/><use xlink:href="#2" y="6.513"/><text y="10.354" class="g">➜</text><text x="2.004" y="10.354" class="h">arx-demo</text><text x="11.022" y="10.354" class="i">$</text><text x="13.026" y="10.354" class="i">#</text><text x="15.03" y="10.354" class="i">Edit</text><text x="20.04" y="10.354" class="i">~/.config/arx/co</text></svg><svg x="6372"><use xlink:href="#a"/><use xlink:href="#1" y="2.171"/><use xlink:href="#2" y="6.513"/><text y="10.354" class="g">➜</text><text x="2.004" y="10.354" class="h">arx-demo</text><text x="11.022" y="10.354" class="i">$</text><text x="13.026" y="10.354" class="i">#</text><text x="15.03" y="10.354" class="i">Edit</text><text x="20.04" y="10.354" class="i">~/.config/arx/con</text></svg><svg x="6608"><use xlink:href="#a"/><use xlink:href="#1" y="2.171"/><use xlink:href="#2" y="6.513"/><text y="10.354" class="g">➜</text><text x="2.004" y="10.354" class="h">arx-demo</text><text x="11.022" y="10.354" class="i">$</text><text x="13.026" y="10.354" class="i">#</text><text x="15.03" y="10.354" class="i">Edit</text><text x="20.04" y="10.354" class="i">~/.config/arx/conf</text></svg><svg x="6844"><use xlink:href="#a"/><use xlink:href="#1" y="2.171"/><use xlink:href="#2" y="6.513"/><text y="10.354" class="g">➜</text><text x="2.004" y="10.354" class="h">arx-demo</text><text x="11.022" y="10.354" class="i">$</text><text x="13.026" y="10.354" class="i">#</text><text x="15.03" y="10.354" class="i">Edit</text><text x="20.04" y="10.354" class="i">~/.config/arx/confi</text></svg><svg x="7080"><use xlink:href="#a"/><use xlink:href="#1" y="2.171"/><use xlink:href="#2" y="6.513"/><use xlink:href="#5" y="8.684"/></svg><svg x="7316"><use xlink:href="#a"/><use xlink:href="#1" y="2.171"/><use xlink:href="#2" y="6.513"/><use xlink:href="#5" y="8.684"/></svg><svg x="7552"><use xlink:href="#a"/><use xlink:href="#1" y="2.171"/><use xlink:href="#2" y="6.513"/><use xlink:href="#5" y="8.684"/><use xlink:href="#6" y="10.855"/></svg><svg x="7788"><use xlink:href="#a"/><use xlink:href="#1" y="2.171"/><use xlink:href="#2" y="6.513"/><use xlink:href="#5" y="8.684"/><use xlink:href="#6" y="10.855"/><use xlink:href="#7" y="13.026"/><use xlink:href="#8" y="15.197"/><use xlink:href="#9" y="17.368"/></svg><svg x="8024"><use xlink:href="#a"/><use xlink:href="#1" y="2.171"/><use xlink:href="#2" y="6.513"/><use xlink:href="#5" y="8.684"/><use xlink:href="#6" y="10.855"/><use xlink:href="#7" y="13.026"/><use xlink:href="#8" y="15.197"/><use xlink:href="#9" y="17.368"/><use xlink:href="#10" y="21.71"/></svg><svg x="8260"><use xlink:href="#a"/><use xlink:href="#1" y="2.171"/><use xlink:href="#2" y="6.513"/><use xlink:href="#5" y="8.684"/><use xlink:href="#6" y="10.855"/><use xlink:href="#7" y="13.026"/><use xlink:href="#8" y="15.197"/><use xlink:href="#9" y="17.368"/><use xlink:href="#10" y="21.71"/><text y="27.722" class="i">Demo</text><text x="5.01" y="27.722" class="i">finished.</text></svg></svg></g></g></svg></svg>