<svg xmlns="http://www.w3.org/2000/svg" xmlns:xlink="http://www.w3.org/1999/xlink" width="2400" height="1319.18"><rect width="2400" height="1319.18" rx="5" ry="5" class="a"/><svg y="0%" x="0%"><circle cx="20" cy="20" r="6" fill="#ff5f58"/><circle cx="40" cy="20" r="6" fill="#ffbd2e"/><circle cx="60" cy="20" r="6" fill="#18c132"/></svg><svg height="1259.18" viewBox="0 0 236 125.918" width="2360" x="15" xmlns="http://www.w3.org/2000/svg" xmlns:xlink="http://www.w3.org/1999/xlink" y="50"><style>@keyframes i{0%{transform:translateX(0)}.7%{transform:translateX(-236px)}10%{transform:translateX(-708px)}27.9%{transform:translateX(-944px)}45.9%{transform:translateX(-1180px)}63.7%{transform:translateX(-1416px)}81.7%{transform:translateX(-1652px)}99.9%{transform:translateX(-1888px)}}.a{fill:#282d35}.f,.g{fill:#71bef2;white-space:pre}.g{fill:#b9c0cb}</style><g font-family="Monaco,Consolas,Menlo,'Bitstream Vera Sans Mono','Powerline Symbols',monospace" font-size="1.67"><defs><symbol id="1"><text y="1.67" class="f">#</text><text x="2.004" y="1.67" class="f">Episode</text><text x="10.02" y="1.67" class="f">12:</text><text x="14.028" y="1.67" class="f">Roadmap</text><text x="22.044" y="1.67" class="f">&amp;</text><text x="24.048" y="1.67" class="f">Community</text></symbol><symbol id="2"><text y="1.67" class="f">#</text><text x="2.004" y="1.67" class="f">Future</text><text x="9.018" y="1.67" class="f">Features:</text></symbol><symbol id="3"><text x="2.004" y="1.67" class="g">•</text><text x="4.008" y="1.67" class="g">Cloud</text><text x="10.02" y="1.67" class="g">Integration</text><text x="22.044" y="1.67" class="g">(Rclone)</text></symbol><symbol id="4"><text x="2.004" y="1.67" class="g">•</text><text x="4.008" y="1.67" class="g">GPG</text><text x="8.016" y="1.67" class="g">Encryption</text></symbol><symbol id="5"><text x="2.004" y="1.67" class="g">•</text><text x="4.008" y="1.67" class="g">Plugin</text><text x="11.022" y="1.67" class="g">System</text></symbol><symbol id="6"><text y="1.67" class="f">#</text><text x="2.004" y="1.67" class="f">Join</text><text x="7.014" y="1.67" class="f">the</text><text x="11.022" y="1.67" class="f">Community!</text></symbol><symbol id="7"><text x="2.004" y="1.67" class="g">GitHub:</text><text x="10.02" y="1.67" class="g">https://github.com/arx/arx</text></symbol><symbol id="8"><text x="2.004" y="1.67" class="g">Issues:</text><text x="10.02" y="1.67" class="g">https://github.com/arx/arx/issues</text></symbol><symbol id="a"><path fill="transparent" d="M0 0h236v58H0z"/></symbol></defs><path class="a" d="M0 0h236v125.918H0z"/><g style="animation-duration:11.227037s;animation-iteration-count:infinite;animation-name:i;animation-timing-function:steps(1,end)"><svg width="2124"><svg><use xlink:href="#a"/></svg><svg x="236"><use xlink:href="#a"/><text y="1.67" class="g">Starting</text><text x="9.018" y="1.67" class="g">ARX</text><text x="13.026" y="1.67" class="g">Demo...</text></svg><svg x="472"><use xlink:href="#a"/></svg><svg x="708"><use xlink:href="#a"/><use xlink:href="#1" y="2.171"/></svg><svg x="944"><use xlink:href="#a"/><use xlink:href="#1" y="2.171"/><use xlink:href="#2" y="6.513"/></svg><svg x="1180"><use xlink:href="#a"/><use xlink:href="#1" y="2.171"/><use xlink:href="#2" y="6.513"/><use xlink:href="#3" y="8.684"/><use xlink:href="#4" y="10.855"/><use xlink:href="#5" y="13.026"/></svg><svg x="1416"><use xlink:href="#a"/><use xlink:href="#1" y="2.171"/><use xlink:href="#2" y="6.513"/><use xlink:href="#3" y="8.684"/><use xlink:href="#4" y="10.855"/><use xlink:href="#5" y="13.026"/><use xlink:href="#6" y="17.368"/></svg><svg x="1652"><use xlink:href="#a"/><use xlink:href="#1" y="2.171"/><use xlink:href="#2" y="6.513"/><use xlink:href="#3" y="8.684"/><use xlink:href="#4" y="10.855"/><use xlink:href="#5" y="13.026"/><use xlink:href="#6" y="17.368"/><use xlink:href="#7" y="19.539"/><use xlink:href="#8" y="21.71"/></svg><svg x="1888"><use xlink:href="#a"/><use xlink:href="#1" y="2.171"/><use xlink:href="#2" y="6.513"/><use xlink:href="#3" y="8.684"/><use xlink:href="#4" y="10.855"/><use xlink:href="#5" y="13.026"/><use xlink:href="#6" y="17.368"/><use xlink:href="#7" y="19.539"/><use xlink:href="#8" y="21.71"/><text y="27.722" class="g">Demo</text><text x="5.01" y="27.722" class="g">finished.</text></svg></svg></g></g></svg></svg>